<svg xmlns="http://www.w3.org/2000/svg" xmlns:xlink="http://www.w3.org/1999/xlink" width="115.243" height="74" viewBox="0 0 115.243 74">
  <defs>
    <filter id="logo_petit" x="0" y="0" width="115.243" height="74" filterUnits="userSpaceOnUse">
      <feOffset dx="3" dy="3" input="SourceAlpha"/>
      <feGaussianBlur stdDeviation="3.5" result="blur"/>
      <feFlood flood-opacity="0.239"/>
      <feComposite operator="in" in2="blur"/>
      <feComposite in="SourceGraphic"/>
    </filter>
  </defs>
  <g transform="matrix(1, 0, 0, 1, 0, 0)" filter="url(#logo_petit)">
    <path id="logo_petit-2" data-name="logo_petit" d="M469.328,4.7c-.148-.114-.152-.139-.167-.985-.009-.478-.014-1.21-.013-1.628s0-.814,0-.88,0-1.351,0-2.854,0-2.979-.006-3.279-.011-.794-.014-1.1c-.006-.507-.02-.566-.174-.749a.7.7,0,0,1-.167-.309c0-.066-.137-.2-.34-.345-.559-.384-.581-.393-.735-.292a.568.568,0,0,1-.255.089.2.2,0,0,0-.154.054.642.642,0,0,1-.292.093,10.141,10.141,0,0,1-2.563.1,12.856,12.856,0,0,1,1.879-.126,3.493,3.493,0,0,0,1.59-.592c.083-.1.2-.053.2.087,0,.109.117.213.431.38a.653.653,0,0,1,.324.393c.119.313.169.335.307.14.082-.116.105-.123.156-.046a1.039,1.039,0,0,1,.061.395c0,.167,0,.4,0,.516s-.014.486-.034.82-.036.655-.035.714a7.485,7.485,0,0,0,.068,1.442c.022,0,.056-.061.076-.136.028-.106.052-.119.108-.063s.057.127,0,.3a3.619,3.619,0,0,0-.181,1.2,1.31,1.31,0,0,1-.018.5,3.431,3.431,0,0,0-.059.5c.006.05.009.351.008.668s0,1.287,0,2.156,0,1.647-.005,1.731c-.024.386.048.772.151.812a6.537,6.537,0,0,0,.738.072,3.259,3.259,0,0,1,.724.095.335.335,0,0,0,.26-.014.824.824,0,0,1,.355-.036.665.665,0,0,0,.305-.024.836.836,0,0,1,.428.012c.462.107.457.1.364.2-.06.06-.334.085-1.034.095-.8.011-.978,0-1.105-.087s-.168-.092-.346,0a.9.9,0,0,1-.843-.023Zm3.588.035c-.057-.068-.032-.09.129-.117.109-.018.281-.05.381-.071l.319-.066c.131-.027.137-.055.139-.619,0-.325.016-.806.035-1.07a2.933,2.933,0,0,0-.035-.75c-.051-.2-.051-.292,0-.356.039-.047.047-.089.018-.094a6.382,6.382,0,0,0-.753-.046,1.7,1.7,0,0,1-.565-.129c-.321-.142-.435-.332-.372-.618a.333.333,0,0,0-.037-.264c-.155-.187.014-.163.187.026a.579.579,0,0,1,.181.4v.2l.467.04c.5.042.613,0,.514-.182a1.465,1.465,0,0,1-.093-.217c-.022-.071-.125-.116-.331-.143l-.3-.04L472.8.345c-.006-.277.037-.314.225-.2a.318.318,0,0,0,.306,0c.159-.055.2-.051.221.021l.056.18a.122.122,0,0,0,.238-.015,7.426,7.426,0,0,0-.116-2.223c-.07-.1-.069-.15.005-.329a1.463,1.463,0,0,0-.009-1.016c-.092-.14-.089-.155.065-.3a.357.357,0,0,0,.142-.347c-.025-.255-.161-.3-.207-.072a.345.345,0,0,1-.167.233.742.742,0,0,0-.253.311c-.175.365-.392.583-.5.5s-.1-.241.028-.275.3-.545.217-.626-.327.037-.327.14a.257.257,0,0,1-.092.162.186.186,0,0,0-.059.183c.024.076-.029.143-.184.234-.26.153-.272.155-.272.037a.427.427,0,0,1,.152-.223.426.426,0,0,0,.152-.235.275.275,0,0,1,.094-.181.16.16,0,0,0,.064-.155c-.06-.156.117-.216.415-.141.258.065.294.06.42-.058s.134-.175.112-.492c-.025-.344-.017-.37.161-.52s.187-.161.163-.657c-.026-.531.017-.687.174-.627.08.031.1.145.1.663a1.612,1.612,0,0,0,.124.856.61.61,0,0,1,.058.546c-.036.173-.078.383-.094.467a9.592,9.592,0,0,0,0,1.761.952.952,0,0,1,.025.44,7.154,7.154,0,0,0,.123,1.758c.081.081.359-.067.41-.217.033-.1.053-.054.082.181.048.387.152.533.311.434.123-.077.424.018.424.134,0,.1-.263.136-.447.067a1.062,1.062,0,0,0-.309-.064.8.8,0,0,1-.391-.243c-.314-.3-.4-.312-.345-.029.038.2.029.216-.144.25-.207.041-.336.165-.292.28s.645.41.686.343a.373.373,0,0,1,.235-.055,1.725,1.725,0,0,0,.465-.093,1,1,0,0,1,.418-.061c.237.05.345-.046.26-.232-.092-.2-.017-.256.421-.309.307-.037.352-.028.41.08a.78.78,0,0,1-.053.733c-.219.219-.762.23-.762.015a.166.166,0,0,0-.263-.139.639.639,0,0,1-.252.066.492.492,0,0,0-.278.162.344.344,0,0,0-.11.372c.031.164.021.2-.045.183-.046-.015-.1-.118-.115-.229-.036-.241-.215-.384-.305-.244a6.927,6.927,0,0,0-.044,1.242l.015,1.151.152.035c.118.028.156.08.171.234.02.2.034.214.33.279.214.047.216.193,0,.234s-.443-.049-.443-.176a.828.828,0,0,0-.329-.388.765.765,0,0,0-.056.231c-.031.2-.073.247-.271.334-.277.122-.445.131-.547.029-.059-.059-.1-.059-.193,0-.148.093-.151.093-.237-.01ZM476.3,1.22a.479.479,0,0,0,.073-.277c0-.184-.016-.2-.156-.185a.386.386,0,0,0-.258.19c-.1.163-.1.175.016.258.144.106.23.11.325.014ZM474.151-4.33c.131-.05.121-.158-.032-.353-.181-.229-.44-.2-.469.053S473.864-4.22,474.151-4.33Zm2.282,9.051-.152-.086h.224a.418.418,0,0,0,.262-.062.785.785,0,0,1,.611.005q.109.176-.437.209a1,1,0,0,1-.508-.065Zm1.406,0c-.136-.075-.128-.081.164-.121.352-.048.478-.006.369.126-.086.1-.339.1-.533,0Zm.78,0c-.063-.076-.056-.091.042-.091a1.516,1.516,0,0,0,.67-.315,1.061,1.061,0,0,0,.039-.474c-.014-.217-.024-.518-.022-.668a1.066,1.066,0,0,0-.071-.412c-.061-.114-.057-.169.024-.3a.349.349,0,0,0,.056-.256,4.12,4.12,0,0,1,.055-1.274c.03,0,.071.075.091.167a1.237,1.237,0,0,0,.092.272.482.482,0,0,1-.029.489,1.608,1.608,0,0,0,.028,1c.063.1.059.147-.024.266a.448.448,0,0,0-.008.544c.075.145.078.2.017.3a.292.292,0,0,0-.007.3c.065.171.057.188-.141.3a.9.9,0,0,1-.355.124.247.247,0,0,0-.182.061c-.055.089-.186.074-.273-.03Zm-3.006-.013c-.349-.084-.122-.242.248-.172.221.041.269.118.111.179a.516.516,0,0,1-.359-.006Zm-4.6-1.334a.122.122,0,0,1,.116,0c.02.02-.016.035-.08.032s-.085-.017-.037-.037Zm3.572,0c-.073-.073-.039-.2.052-.2a.09.09,0,0,1,.091.088C474.733,3.365,474.646,3.433,474.589,3.376Zm.116-.5a.07.07,0,0,1,.027-.095c.034-.021.062,0,.062.057,0,.107-.036.122-.089.038Zm-.033-.551a.061.061,0,1,1,.061.061A.061.061,0,0,1,474.672,2.325ZM471.59.805c-.181-.073-.179-.241,0-.241a.264.264,0,0,1,.285.225c0,.09-.092.1-.288.016Zm7.8-.04a.519.519,0,0,1-.039-.238.355.355,0,0,0-.061-.236c-.092-.057-.073-.248.034-.337.067-.056.085-.142.062-.3a10.191,10.191,0,0,1-.038-1.28.409.409,0,0,0-.089-.28c-.121-.091-.112-.188.032-.371.11-.14.121-.246.121-1.175a5.006,5.006,0,0,0-.058-1.056.621.621,0,0,1-.023-.353c.029-.262.021-.3-.046-.241-.108.1-.218.1-.259-.012-.022-.056.044-.136.181-.221.276-.171.309-.271.259-.8a1.067,1.067,0,0,1,.049-.613.591.591,0,0,0,.054-.354c-.025-.127-.014-.171.04-.154a.2.2,0,0,1,.095.157c.034.233.236.117.375-.216a.339.339,0,0,1,.226-.171,1.334,1.334,0,0,0,.959-1.789,1.625,1.625,0,0,1-.091-.423.547.547,0,0,0-.121-.305.536.536,0,0,1-.121-.191c0-.028-.041-.051-.091-.051s-.091-.026-.091-.059-.054-.087-.12-.123c-.18-.1-.67.039-.67.185a.192.192,0,0,0,.061.148.383.383,0,0,1,.061.248c0,.252.134.33.3.177a.244.244,0,0,1,.21-.07c.131.05.116.141-.028.179a.162.162,0,0,0-.121.152.174.174,0,0,1-.091.156.18.18,0,0,0-.091.162.634.634,0,0,1-.066.251c-.06.111-.052.119.076.079.164-.051.22-.121.269-.332.06-.263.08-.3.146-.3.035,0,.079.048.1.106s.073.2.121.309a.345.345,0,0,1,0,.389.874.874,0,0,0-.093.286.256.256,0,0,1-.249.246.16.16,0,0,0-.139.095c-.02.052-.064.078-.1.057-.089-.055-.075-.152.023-.152.14,0,.162-.24.033-.369a.41.41,0,0,0-.171-.117c-.091,0-.139.309-.062.4.057.069.045.085-.06.085a.207.207,0,0,0-.19.156l-.059.156-.16-.126c-.188-.148-.3-.158-.421-.039a1,1,0,0,1-.436.123c-.839.087-.792.089-.762-.027.043-.166-.1-.209-.245-.075-.212.192-.366.253-.481.189a.2.2,0,0,0-.216.014c-.243.152-.779-.1-.651-.307.081-.131-.1-.117-.33.026-.289.182-.3.231-.079.31l.166.058-.231.136c-.307.181-.367.131-.32-.268l.038-.326H475.5c-.279,0-.515.1-.563.227-.055.148-.14.2-.35.2a.391.391,0,0,0-.314.168c-.108.134-.15.152-.211.092s-.05-.112.063-.265.129-.214.074-.334c-.069-.152-.215-.192-.285-.078-.024.038-.117.052-.22.031a.312.312,0,0,0-.334.12.57.57,0,0,1-.461.166c-.391.014-.442-.1-.109-.245.249-.108.322-.2.16-.2s-.4.119-.4.207c0,.049-.055.106-.122.127s-.121.064-.121.1-.057.057-.126.057c-.2,0-.117-.2.111-.271.205-.06.252-.159.121-.258a.515.515,0,0,0-.726.282c-.021.184-.187.183-.386,0a.426.426,0,0,0-.2-.116c-.042,0-.067-.048-.055-.106.017-.082.075-.1.251-.092.2.012.225,0,.191-.106-.064-.2.015-.242.281-.148.234.083.249.081.279-.034s.117-.154.382-.19a1.308,1.308,0,0,1,.349.061c.236.067.261.094.3.314a2.024,2.024,0,0,0,.046.24,1.563,1.563,0,0,0,.421-.179.991.991,0,0,1-.226-.061c-.149-.057-.151-.064-.066-.269.144-.344.363-.543.546-.5a.343.343,0,0,1,.211.174l.055.135.039-.129a.438.438,0,0,1,.5-.246c.275.055.49-.244.308-.426-.049-.049-.03-.117.07-.252.126-.171.147-.178.263-.1.166.116.194.111.194-.033,0-.067-.028-.121-.063-.121-.081,0-.214-.418-.146-.46.111-.068.468.048.5.162a.311.311,0,0,0,.173.173c.131.053.132.057.017.061a.489.489,0,0,0-.232.082c-.1.074-.1.084.017.19s.147.1.323.034a1.291,1.291,0,0,0,.25-.123c.073-.064-.013-.3-.11-.3-.067,0-.154-.123-.154-.217a.574.574,0,0,1,.236-.025c.183,0,.234.023.228.1-.005.062.057.119.165.148a.826.826,0,0,1,.273.136.282.282,0,0,0,.414-.116c.054-.141-.094-.217-.359-.186-.125.015-.243,0-.262-.028-.051-.082-.049-.082,1.947-.023l.972.03c.067,0,.334-.017.594-.045.411-.044.5-.036.651.062a1.1,1.1,0,0,1,.457.848.978.978,0,0,0,.1.383,1.405,1.405,0,0,1,.054.508c0,.348-.024.495-.091.55a.274.274,0,0,0-.093.174c0,.211-.491.615-.74.615-.2,0-.85.809-.8,1a.976.976,0,0,1,.024.248c-.044.682-.06,1.154-.092,2.672a12.046,12.046,0,0,0,0,2.265.473.473,0,0,1-.057.341c-.09.138-.067.339.039.339s.053.239-.076.359-.126.162-.09.514,0,.521-.106.42Zm-4.675-8.812c.18-.237.024-.4-.19-.194a.685.685,0,0,0-.173.255c-.028.105-.01.116.127.082A.493.493,0,0,0,474.712-8.047Zm2.936-.133c0-.067-.041-.121-.091-.121s-.091.054-.091.121.04.121.091.121S477.647-8.112,477.647-8.18Zm1.617-.093c-.039-.1-.4-.124-.4-.025s.389.247.416.173a.257.257,0,0,0-.013-.147Zm-.524-.12c0-.1-.34-.333-.492-.333a.356.356,0,0,1-.205-.12c-.105-.116-.1-.122.055-.182a.982.982,0,0,1,.278-.062.2.2,0,0,0,.151-.061c.064-.1.123-.068.194.121.146.387.93.426.93.047,0-.272-.4-.593-.516-.411a.859.859,0,0,1-.553-.016c-.018-.018.013-.086.069-.152.081-.094.155-.113.361-.09.156.018.276,0,.3-.039a.2.2,0,0,1,.158-.068c.255,0,.261-.341.011-.566a1.043,1.043,0,0,0-.919-.015.3.3,0,0,1-.43,0,.462.462,0,0,0-.311-.091c-.227,0-.235.007-.235.206,0,.3-.323.383-.67.178a.283.283,0,0,0-.313-.037c-.133.062-.134.068-.024.112a1.058,1.058,0,0,1,.282.232c.144.161.178.174.265.1.138-.115.169-.058.091.168s-.112.233-.419.056c-.13-.075-.257-.114-.284-.088s-.011.071.034.1a.1.1,0,0,1-.052.186c-.049,0-.135-.2-.15-.345s-.087-.152-.3-.075c-.176.064-.231.063-.313-.006s-.1-.065-.08.1.047.178.187.176c.2,0,.208.037.046.185a.357.357,0,0,0-.121.192c0,.045.055.082.121.082.1,0,.121.04.121.243,0,.3.11.319.4.061.245-.216.318-.224.5-.057.123.115.162.12.464.057a.7.7,0,0,1,.45,0,1.116,1.116,0,0,0,.4.064c.232,0,.289.022.315.121.037.141.2.165.2.029ZM477.6-8.92c-.114-.114-.087-.181.063-.16.075.011.137.058.137.105,0,.116-.109.145-.2.054Zm.2-.461c-.278-.193-.342-.317-.163-.317.083,0,.138-.051.164-.152.043-.171.077-.181.3-.081.187.085.21.294.033.294-.147,0-.158.111-.021.212.055.04.081.1.057.143C478.109-9.184,478.074-9.194,477.8-9.381Zm-2.282.9c0-.033-.012-.061-.027-.061s-.044.027-.064.061-.009.061.027.061A.063.063,0,0,0,475.522-8.483Zm-1.7-.3c0-.033-.056-.061-.125-.061s-.108.027-.087.061a.161.161,0,0,0,.125.061C473.782-8.726,473.822-8.754,473.822-8.787Zm1.852,0c.021-.033.009-.061-.027-.061a.063.063,0,0,0-.064.061c0,.033.012.061.027.061S475.653-8.754,475.674-8.787Zm-.294-.276a.144.144,0,0,0,0-.13c-.043-.043-.221.094-.221.171,0,.092.184.058.222-.04ZM472.456.017a.07.07,0,0,1,.095-.027c.084.052.068.088-.038.088C472.461.079,472.435.051,472.456.017Zm2.352-.4c-.092-.037-.1-.6-.015-.658.073-.045.1.029.145.41C474.973-.351,474.959-.326,474.809-.387Zm2.565-.2c-.046-.075.121-.147.211-.092a.072.072,0,0,1,.03.1.156.156,0,0,1-.241,0Zm-4.766-.064c0-.035.027-.047.061-.027s.061.05.061.064-.027.027-.061.027A.063.063,0,0,1,472.607-.654Zm4.069-.209c0-.051.054-.091.121-.091s.122.04.122.091-.054.091-.122.091S476.676-.812,476.676-.863ZM443.589-.988a.829.829,0,0,1-.343-.19c-.057-.078-.167-.108-.406-.111a.827.827,0,0,1-.527-.145c-.147-.1-.216-.124-.267-.073a.438.438,0,0,1-.255.068.454.454,0,0,1-.424-.358.521.521,0,0,0-.448-.29c-.225-.021-.411-.174-.722-.593a1.563,1.563,0,0,0-.408-.422c-.132-.037-.313.1-.37.276a.672.672,0,0,1-.307.243c-.262.123-.281.124-.6.025a.947.947,0,0,1-.678-.607,1.09,1.09,0,0,1-.028-.877c.075-.226.072-.262-.028-.372a.367.367,0,0,0-.219-.122.189.189,0,0,1-.146-.061c-.059-.1.155-.148.281-.07a.5.5,0,0,0,.223.07c.228,0,.258.124.1.406a.96.96,0,0,0,.181,1.247c.186.156.211.132.121-.12-.114-.32-.105-.465.037-.594a1.757,1.757,0,0,0,.248-.313c.129-.209.277-.262.332-.118a1.159,1.159,0,0,1-.353.593c-.048.029-.044.1.012.232l.079.191.191-.186c.22-.214.4-.239.441-.064.038.146.112.157.163.024s.288-.07.561.138c.158.12.2.134.2.062a.31.31,0,0,0-.088-.182.653.653,0,0,1-.13-.262.779.779,0,0,0-.132-.278.335.335,0,0,1-.051-.3c.022-.11.078-.479.125-.82a3.011,3.011,0,0,1,.548-1.5c.346-.522.752-.885.987-.885.185,0,.2.013.2.213,0,.151-.027.213-.094.213a1.362,1.362,0,0,0-.753.481,4.952,4.952,0,0,0-.382.594,1.646,1.646,0,0,0-.217.888c-.024.477-.013.556.1.711a.7.7,0,0,1,.129.239,1.735,1.735,0,0,0,.521.691c.194.154.236.165.362.1.2-.108.353-.037.3.137a3.118,3.118,0,0,0-.082.349c-.033.188-.057.21-.2.2s-.165,0-.165.164a.324.324,0,0,0,.119.264.6.6,0,0,1,.178.239c.052.136.09.154.31.141a.668.668,0,0,0,.313-.076.914.914,0,0,0,.066-.657c-.073-.13.024-.391.145-.391s.131.058.091.622-.03.654.055.654a1.032,1.032,0,0,0,.077-.44,3.21,3.21,0,0,1,.207-1.036c.055-.088.2.138.2.311,0,.122.015.135.088.074.1-.084.215-.036.215.092,0,.048.027.088.061.088s.061-.066.061-.147a.515.515,0,0,1,.479-.4c.2,0,.329.185.371.516.024.192.056.243.152.243s.122-.041.122-.288c0-.158.023-.291.051-.294a.634.634,0,0,1,.227.152c.163.145.177.191.177.573,0,.338-.023.436-.122.525a.388.388,0,0,0-.121.159c0,.075.178-.009.343-.162l.147-.137.274.146c.329.175.309.173.386.03.051-.1.043-.111-.047-.087-.074.019-.132-.022-.18-.127-.039-.086-.113-.156-.163-.156-.149,0-.106-.22.064-.332.09-.059.143-.139.124-.187a.1.1,0,0,1,.026-.121.261.261,0,0,0,.058-.188c0-.125.022-.145.121-.114s.121.011.121-.08a.849.849,0,0,0-.254-.507c-.063-.041-.054-.072.042-.14a.923.923,0,0,0,.423-.557,1.942,1.942,0,0,0-.146-1.049l-.1-.139-.131.223a.86.86,0,0,1-.4.343c-.15.066-.273.146-.273.177a.9.9,0,0,1-.182.263.882.882,0,0,0-.182.266c0,.129.288.364.531.434.142.04.258.1.258.134,0,.095-.183.14-.259.064a.276.276,0,0,0-.17-.069c-.157,0-.415-.233-.53-.477-.091-.193-.135-.224-.347-.241a.713.713,0,0,1-.334-.1c-.077-.069-.123-.054-.3.1-.273.229-.346.223-.456-.04-.077-.184-.116-.214-.259-.2s-.171.044-.2.338c-.046.455-.128.514-.736.524-.5.008-.512,0-.736-.2-.126-.113-.246-.19-.266-.169-.1.1-.265-.118-.386-.508a1.3,1.3,0,0,1-.067-.8c.073-.413.16-.556.252-.411a.51.51,0,0,1,.058.227c0,.18.278.2.334.018a.267.267,0,0,1,.335-.155c.034.021.087-.028.117-.109.061-.16.177-.224.4-.224.194,0,.2-.229.01-.466-.237-.3-.305-.452-.233-.525a.408.408,0,0,0,.066-.24c0-.131.026-.17.106-.158a.649.649,0,0,0,.246-.032c.11-.037.125-.065.071-.13-.086-.1-.026-.21.117-.21.118,0,.249.232.249.443,0,.11.034.134.2.134.252,0,.294-.165.1-.376-.278-.3-.456-.349-1.2-.353a4.028,4.028,0,0,1-.769-.047.16.16,0,0,1-.038-.166c.022-.084,0-.121-.065-.121s-.114.069-.135.152a.464.464,0,0,1-.532.337A.466.466,0,0,1,440-7.866a.589.589,0,0,0-.439-.2c-.022,0-.025-.048-.007-.115.045-.174-.332-.492-.486-.41a.2.2,0,0,1-.166.021.229.229,0,0,0-.181.03c-.156.084-.164.243-.01.2s.763.364,1.041.716a.8.8,0,0,1,.243.54c0,.267-.078.363-.44.545-.244.122-.263.152-.359.543a1.7,1.7,0,0,1-.691,1.086c-.317.223-.344.228-.55.093a.345.345,0,0,0-.357-.038c-.222.068-.336.011-.336-.167,0-.117-.315-.485-.415-.485-.085,0-.086.012-.014.2a.246.246,0,0,1-.024.26c-.077.1-.093.1-.33-.063-.3-.207-.316-.349-.068-.581.142-.133.162-.177.091-.2-.121-.046-.115-.178.016-.339.163-.2.34-.109.291.153-.033.175-.02.2.1.219.091.013.133.055.121.123-.019.112.2.259.292.2s.066-.323-.057-.362c-.085-.027-.115-.09-.111-.232,0-.107,0-.277-.009-.377a3.436,3.436,0,0,1,.029-.529.66.66,0,0,1,.217-.5c.213-.19.218-.258.022-.347-.084-.038-.155-.106-.159-.151s-.011-.11-.015-.144a.209.209,0,0,0-.1-.117c-.076-.047-.076-.077,0-.21.086-.16.209-.2.275-.1.046.075.334.078.449.006a.2.2,0,0,0,.054-.212c-.021-.108,0-.158.052-.158a.087.087,0,0,1,.083.091c0,.1.245.124.411.034a1.311,1.311,0,0,1,.328-.093c.179-.029.235-.072.287-.22s.092-.176.172-.151c.122.039.527-.3.47-.393a.205.205,0,0,0-.31.034c-.022.056-.114.091-.241.091s-.206.025-.206.056c0,.087-.616.249-.721.19a.292.292,0,0,0-.233.014c-.1.047-.161.046-.213-.006a.263.263,0,0,0-.165-.069c-.079,0-.077.015.012.083.188.143.087.523-.139.523-.1,0-.119-.042-.119-.21a.46.46,0,0,0-.114-.319,1.292,1.292,0,0,1-.431-.831.886.886,0,0,1,.047-.322c.058-.091.352-.206.4-.157.076.076.032.259-.09.372s-.12.128-.032.291c.235.43.355.483.453.2.059-.168.051-.19-.087-.242a.35.35,0,0,1-.183-.14c-.047-.122.281-.466.443-.466.189,0,.175-.062-.058-.254-.159-.131-.183-.178-.122-.24s.129-.051.349.056c.308.15.37.34.132.4-.1.024-.166.109-.216.265-.041.126-.088.26-.1.3-.042.1.159.159.257.077a.3.3,0,0,0,.083-.207c0-.152.1-.212.367-.212s.34-.189.158-.493a.979.979,0,0,0-.291-.32.249.249,0,0,1-.143-.2c0-.184-.555-.563-.7-.475-.042.026-.123-.1-.123-.186,0-.118.857.2,1.093.411a2.223,2.223,0,0,1,.589,1.279c.035.26.07.277.216.106a.489.489,0,0,1,.681.02.226.226,0,0,0,.263.116.269.269,0,0,1,.25.071.275.275,0,0,0,.148.1c.108.005.357.355.321.449s.112.24.225.2a.4.4,0,0,1,.251.054c.235.122.292.108.26-.062-.041-.212.1-.239.313-.059.157.132.2.142.305.074.069-.043.125-.1.125-.125s.068-.03.152-.009c.126.032.152.016.152-.09s-.037-.128-.179-.128a.966.966,0,0,0-.336.071c-.117.053-.174.054-.226,0s-.04-.08.047-.112a.37.37,0,0,0,.165-.123.253.253,0,0,1,.2-.08c.092,0,.149-.035.149-.091,0-.137-.173-.109-.375.061a.65.65,0,0,1-.252.15c-.1,0-.344-.215-.344-.3a.064.064,0,0,0-.061-.066c-.1,0-.068-.183.039-.224a.156.156,0,0,1,.178.068c.055.074.107.09.174.052s.069-.075-.087-.189a.38.38,0,0,1-.121-.534c.043-.043.024-.112-.061-.219a.5.5,0,0,1,0-.64c.1-.164.147-.192.272-.161.2.049.249-.079.153-.367-.079-.239-.156-.275-.212-.1a1.421,1.421,0,0,1-.613.551.588.588,0,0,1-.222-.068c-.107-.057-.145-.045-.238.076a.661.661,0,0,0-.112.341c0,.23-.1.261-.18.055s-.144-.777-.067-.6.16.172.336-.03c.116-.134.16-.152.222-.091.2.194.583-.043.874-.536a.461.461,0,0,1,.26-.228.344.344,0,0,0,.26-.455c-.143-.377-.706-.409-1.153-.065a1.031,1.031,0,0,1-.375.206c-.169,0-.375.3-.329.484.09.36.1.487.045.487-.1,0-.21-.713-.124-.766a.241.241,0,0,0,.049-.169.314.314,0,0,1,.4-.3c.149.037.165.028.135-.084a.351.351,0,0,1,.055-.252c.083-.118.1-.12.272-.03a.389.389,0,0,0,.37.03.67.67,0,0,1,.411,0,.651.651,0,0,1,.4.789.372.372,0,0,0,.124.429c.149.155.326.2.239.055a.932.932,0,0,1,.272-.544c.031,0,.1.057.144.126s.1.1.128.061c.1-.158.511-.04.71.2.085.1.126.115.215.06.151-.092.138-.224-.029-.3-.278-.121-.251-.5.061-.856.19-.216.2-.219.53-.18a5.122,5.122,0,0,0,.561.036c.2,0,.25.029.442.281a1.038,1.038,0,0,1,.264.928c-.025.345-.238.791-.377.792a1.92,1.92,0,0,1-.383-.334c-.3-.3-.315-.334-.183-.334a.571.571,0,0,1,.343.216l.2.216.147-.159a.932.932,0,0,0,.047-.943c-.236-.353-.4-.484-.624-.485a.745.745,0,0,1-.3-.056c-.1-.062-.437.089-.651.292-.182.172-.129.3.256.617.247.2.3.277.224.293-.232.046-.2.128.124.279.381.18.529.364.529.659a1.927,1.927,0,0,0,.1.5c.084.247.086.3.015.341a2.318,2.318,0,0,0-.206.143c-.1.081-.109.1-.03.155.168.113.421.064.743-.143a1.554,1.554,0,0,0,.722-.8,1.886,1.886,0,0,0,.1-1.1.512.512,0,0,1-.049-.276.94.94,0,0,0-.312-.723c-.082-.044-.114-.129-.114-.308s-.02-.24-.087-.214c-.106.041-.4-.178-.4-.3,0-.048.029-.087.065-.087s.048-.052.027-.119c-.062-.2.03-.549.143-.549a2.128,2.128,0,0,1,.859,1.031.325.325,0,0,0,.077.195c.119.125.22.388.176.46a4.207,4.207,0,0,0-.04.753c0,.6.013.686.1.673a.214.214,0,0,1,.174.076.437.437,0,0,0,.289.092.558.558,0,0,1,.439.228c.207.208.231.266.27.671s.056.448.206.505a1.082,1.082,0,0,1,.3.187.269.269,0,0,0,.3.079,5.152,5.152,0,0,1,.705-.073c.439-.022.564-.008.7.08a3.227,3.227,0,0,0,1.674,0,2.194,2.194,0,0,1,1.161-.04.161.161,0,0,0,.126.061,1.487,1.487,0,0,1,.369.132l.281.132.27-.143.27-.143.352.193a1.648,1.648,0,0,0,.472.193.956.956,0,0,0,.371-.182.613.613,0,0,1,.677-.122c.083.044.189.028.4-.063a2.568,2.568,0,0,1,1.664.046,3.222,3.222,0,0,0,1.226.155c.729,0,.768.01.711.116-.047.088-.085.1-.175.05a3.517,3.517,0,0,0-.814-.061,2.381,2.381,0,0,1-.736-.061.419.419,0,0,0-.262-.063.686.686,0,0,1-.342-.091,1.755,1.755,0,0,0-1.259.13c-.27.17-.314.176-.415.054s-.332-.111-.535.061a1.1,1.1,0,0,1-1.226-.069c-.074-.061-.131-.057-.294.022a.564.564,0,0,0-.233.179c-.046.121-.145.1-.408-.1a.9.9,0,0,0-.346-.18.186.186,0,0,1-.145-.061.547.547,0,0,0-.482-.007.561.561,0,0,1-.259.1c-.18.034-.243.02-.311-.069s-.094-.089-.114-.035-.092.076-.17.076c-.184,0-.334.059-.334.131,0,.032.091.04.208.018.166-.031.23-.014.317.088.125.146.357.169.406.041.025-.065.122-.081.386-.065.293.018.353.04.353.132,0,.122.37.406.458.351.03-.019.135.025.233.1s.2.115.237.095.093,0,.135.054c.12.145.171.107.225-.167.031-.157.088-.265.146-.276.077-.015.1.062.126.394.046.607-.018,1.074-.15,1.1a.086.086,0,0,1-.114-.075c-.017-.213-.025-.238-.09-.259a.155.155,0,0,0-.139.065.2.2,0,0,1-.191.056c-.066-.017-.119,0-.119.037s-.081.068-.181.068c-.15,0-.2.042-.3.24-.155.3-.067.371.209.16.252-.192.251-.192.6-.006L455-7.7l.24-.151a.968.968,0,0,1,1.068,0c.22.189.268.189.549,0L457.083-8l.164.157a.759.759,0,0,0,.509.192c.305.031.356.021.435-.092s.115-.117.224-.067.225.031.484-.055a1.828,1.828,0,0,1,.744-.091c.313.02.395.007.395-.061,0-.115-.158-.242-.256-.206s-.472-.182-.582-.333c-.075-.1-.088-.1-.237.037-.087.08-.195.132-.24.115s-.082-.005-.082.027a.6.6,0,0,1-.159.218c-.124.124-.183.146-.269.1a.565.565,0,0,0-.221-.06.733.733,0,0,1-.267-.082c-.149-.078-.156-.075-.13.061S457.6-8,457.4-8c-.238,0-.257-.034-.149-.272.061-.135.053-.173-.061-.278-.164-.152-.17-.3-.014-.3.137,0,.216-.1.126-.151a.382.382,0,0,1-.062-.249c0-.176.035-.231.207-.333a.682.682,0,0,0,.247-.226c.036-.092.054-.087.157.04s.124.139.269.044c.114-.075.182-.084.269-.037a1.057,1.057,0,0,0,.385.063.461.461,0,0,1,.379.122c.116.129.208.122.54-.037.1-.05.2-.063.243-.032a.922.922,0,0,0,.376.045.526.526,0,0,0,.5-.216c.173-.189.2-.2.347-.136a.98.98,0,0,0,.34.072,1.6,1.6,0,0,1,.484.13c.288.124.306.125.419.023a.278.278,0,0,1,.264-.07.575.575,0,0,0,.341-.061c.108-.054.216-.074.243-.045.058.064-.1.447-.18.447-.033,0-.061.041-.061.091,0,.14.255.108.405-.05a2.058,2.058,0,0,1,1.051-.5c.125.04.127.048.028.157-.084.093-.09.132-.028.206.107.129-.076.193-.283.1s-.239-.048-.148.152c.063.139.1.155.313.135a.745.745,0,0,1,.241,0,1.608,1.608,0,0,1-.267.457c-.037.026.062.03.221.008.266-.037.288-.03.288.089,0,.071-.027.128-.061.128s-.061.055-.061.121c0,.144.077.157.182.03a.311.311,0,0,1,.213-.091.311.311,0,0,0,.213-.091.337.337,0,0,1,.23-.091.465.465,0,0,0,.269-.1c.092-.083.137-.09.228-.033s.154.05.3-.025a.54.54,0,0,0,.224-.18.137.137,0,0,1,.117-.084c.1,0,.113-.1.023-.152-.034-.021-.078,0-.1.057a.222.222,0,0,1-.209.095.3.3,0,0,0-.21.061c-.055.089-.152.074-.152-.024a.144.144,0,0,0-.091-.12.157.157,0,0,1-.091-.137c0-.1.008-.1.111,0,.061.055.129.082.152.06.079-.079.039-.306-.07-.406-.137-.124-.253-.13-.253-.013a.156.156,0,0,1-.055.122c-.108.067-.248-.042-.248-.192,0-.114.024-.143.1-.115.147.056.216-.015.144-.149s-.015-.151.207-.049c.126.057.177.048.315-.061a.671.671,0,0,1,.69-.061c.16.056.19.093.162.2s0,.145.2.205a.718.718,0,0,0,.323.037.165.165,0,0,1,.166.06.257.257,0,0,0,.159.094c.149,0,.2.215.165.662-.043.509-.142.617-.452.489-.161-.067-.19-.061-.271.056a.321.321,0,0,1-.264.13c-.134,0-.2.049-.3.217-.141.239-.267.248-.3.021s-.117-.273-.258-.093c-.106.134-.163.158-.3.128a.584.584,0,0,0-.42.1l-.248.141-.116-.151-.116-.151-.145.136a.536.536,0,0,1-.311.136.47.47,0,0,0-.318.164c-.133.144-.2.165-.528.167a2.959,2.959,0,0,1-1.155-.145c-.072-.072.146-.065.9.029.3.038.328.03.5-.156a.524.524,0,0,1,.343-.2c.27,0,.2-.2-.1-.285-.142-.042-.321-.1-.4-.131-.273-.107-.333-.074-.29.158.035.185.024.213-.082.213s-.132-.054-.162-.217c-.049-.263-.183-.331-.306-.155-.153.218-.314.274-.481.165-.2-.13-.327-.12-.694.05l-.314.145.2.1a.935.935,0,0,0,.326.1.488.488,0,0,1,.249.089c.11.083.1.089-.116.091a.987.987,0,0,1-.395-.084,3.127,3.127,0,0,0-.708-.158,6.687,6.687,0,0,1-.721-.126.389.389,0,0,0-.241-.013,2.549,2.549,0,0,1-.524.082,2.628,2.628,0,0,0-.988.248,3.139,3.139,0,0,1-.706.053c-.46,0-.618-.021-.676-.091-.1-.115-.247-.116-.4,0-.122.092-.512.128-.513.047s-.4-.319-.543-.319a1.221,1.221,0,0,0-.437.182,1.783,1.783,0,0,1-.347.182,1.238,1.238,0,0,1-.468-.249c-.021-.035-.152,0-.312.095a1.208,1.208,0,0,1-.45.154c-.1,0-.175.024-.175.053,0,.083-.691.14-.871.072-.089-.034-.161-.1-.161-.15,0-.123-.118-.185-.2-.1-.049.049-.036.093.051.163.114.092.113.094-.034.053a1.84,1.84,0,0,0-1.307.1,4.669,4.669,0,0,1-1.329-.06.827.827,0,0,0-.72.121c-.315.159-.355.2-.318.315a.871.871,0,0,1-.024.757c-.138.27-.248.329-.576.307a.45.45,0,0,0-.355.11.947.947,0,0,1-.245.162c-.119.042-.139.135-.042.2.036.022.1-.011.15-.072.076-.1.086-.07.1.282.038,1.21.03,1.3-.111,1.364s-.2.2-.2.5c0,.248.163.271.216.03.065-.3.106-.363.133-.21a2.762,2.762,0,0,1-.448,1.165,1.559,1.559,0,0,1-.765.427c-.054,0-.157.1-.23.214a.626.626,0,0,1-.783.328c-.249-.064-.308-.06-.444.029a.4.4,0,0,1-.3.066c-.108-.027-.218.019-.428.179-.308.235-.371.245-.768.121Zm.519-.163c.11-.075.2-.171.2-.213a.071.071,0,0,1,.065-.076c.1,0,.422-.379.422-.5,0-.158-.1-.189-.195-.058a.389.389,0,0,1-.232.138.176.176,0,0,0-.171.169c-.027.193-.185.43-.286.43a.124.124,0,0,0-.118.182c.053.086.089.078.315-.076ZM443.6-1.3a.614.614,0,0,0-.085-.288,1.36,1.36,0,0,1-.116-.318.072.072,0,0,0-.063-.076c-.086,0-.076.568.012.656s.209.1.252.026Zm-.749-.2a.261.261,0,0,0,.086-.268.644.644,0,0,1,.068-.367c.077-.161.087-.239.038-.288-.073-.073-.192.155-.229.435a.854.854,0,0,1-.146.32C442.474-1.4,442.62-1.268,442.854-1.5Zm3.4-.4a.333.333,0,0,1,.286-.2A.453.453,0,0,0,446.8-2.2a.234.234,0,0,1,.137-.088.7.7,0,0,0,.346-.319.316.316,0,0,1,.094-.149c.106-.106.1-.269-.018-.307-.042-.014-.1.052-.141.147-.092.244-.36.506-.517.506-.2,0-.419-.2-.37-.33a.261.261,0,0,1,.16-.137.247.247,0,0,0,.156-.146c.02-.063.062-.115.093-.115s.057-.055.057-.121.04-.121.091-.121a.1.1,0,0,0,.091-.1c0-.123-.172-.324-.278-.324-.189,0-.237-.605-.085-1.067a.762.762,0,0,0,.041-.333c-.022-.084,0-.117.079-.117.127,0,.182.334.113.675a.421.421,0,0,0,.016.274.56.56,0,0,1,.018.319c-.033.205-.023.25.057.25a.266.266,0,0,0,.178-.137,3.167,3.167,0,0,0-.2-1.832.837.837,0,0,1-.124-.288c0-.1-.294-.384-.641-.615-.28-.186-.348-.2-.447-.079-.055.066-.035.126.09.274.154.183.156.2.058.345s-.1.163.049.352a2.52,2.52,0,0,1,.464,1.145,1.132,1.132,0,0,1-.284,1.06c-.117.155-.139.213-.07.186.137-.052.307.139.231.259a.5.5,0,0,0-.058.221c0,.072-.03.141-.066.153a1.38,1.38,0,0,0-.1.558C446-1.626,446.059-1.544,446.255-1.9Zm-2.321-.132c-.03-.158-.231-.176-.231-.02,0,.087.039.126.126.126s.12-.033.106-.106Zm-3-.471c-.2-.167-.393-.2-.393-.061a.1.1,0,0,0,.108.091.361.361,0,0,1,.218.128c.082.1.127.111.179.059s.024-.106-.112-.217Zm2.974-.279a.068.068,0,0,0-.093-.022.068.068,0,0,0-.022.093.068.068,0,0,0,.093.022A.068.068,0,0,0,443.912-2.781Zm-5.007.005c0-.033-.012-.061-.027-.061s-.044.027-.064.061-.009.061.027.061A.063.063,0,0,0,438.906-2.775Zm3.643-1.154c.2-.2.141-.342-.2-.514a1.043,1.043,0,0,1-.282-.349c-.2-.356-.566-.624-.736-.533a.522.522,0,0,0-.181.183c-.083.154-.22.154-.3,0a.221.221,0,0,0-.156-.121c-.075,0-.083.057-.049.319a1.053,1.053,0,0,0,.52.812.748.748,0,0,1,.232.209c0,.073.17.1.622.111.335.006.432-.015.531-.114Zm2.147-.577c-.019-.05-.059-.091-.089-.091s-.054.041-.054.091a.09.09,0,0,0,.089.091C444.7-4.415,444.718-4.45,444.7-4.506Zm-2.037-.2c-.022-.187-.21-.265-.269-.111a.23.23,0,0,0,.2.277C442.651-4.536,442.673-4.589,442.659-4.7Zm4.99-.016c0-.067-.026-.121-.057-.121a.124.124,0,0,0-.095.182c.063.1.152.067.152-.061Zm-9.431-.49a1.177,1.177,0,0,0,.687-.843c0-.178-.147-.154-.321.054a1.325,1.325,0,0,1-.658.368c-.118,0-.042-.168.135-.3.155-.114.182-.17.155-.309s-.009-.176.085-.2c.14-.037.151-.207.024-.375-.082-.108-.08-.124.017-.158s.109-.107.112-.335c0-.288.01-.3.193-.316.143-.014.206.013.259.111.082.154.039.3-.088.3s-.045.181.121.244a.268.268,0,0,1,.159.193c.011.077.061.14.111.14a.066.066,0,0,0,.066-.091,1.345,1.345,0,0,1-.03-.243c0-.133.025-.156.237-.182l.243-.03-.145-.1a.406.406,0,0,0-.319-.068c-.184.037-.25-.076-.082-.141.13-.05.113-.188-.039-.311-.072-.058-.219-.181-.327-.273-.247-.21-.272-.209-.272.015,0,.161-.021.182-.177.182a1.028,1.028,0,0,0-.6.385,1.9,1.9,0,0,1-.192.244.4.4,0,0,0-.139.352.518.518,0,0,1-.042.294c-.093.174.031.34.126.17a1.036,1.036,0,0,1,.141-.186.784.784,0,0,0,.125-.333c.049-.288.15-.4.344-.369.259.038.211.173-.169.472l-.162.128.156.166.156.166-.129.273a1.816,1.816,0,0,1-.207.353.339.339,0,0,0-.02.507c.159.128.233.136.469.047Zm-.789-.129c-.019-.048-.034-.034-.037.037s.012.1.032.08A.122.122,0,0,0,437.429-5.337Zm5.059-.024c0-.053-.032-.085-.072-.072-.113.038-.131.168-.024.168A.1.1,0,0,0,442.488-5.361Zm3.33-.242c.011-.009,0-.071-.018-.138-.034-.106-.51-.4-.563-.351a.461.461,0,0,0,.072.2.809.809,0,0,1,.092.281c0,.085.037.1.2.067A1.194,1.194,0,0,0,445.819-5.6Zm1.923-.523c.2-.092.241-.22.055-.185-.1.018-.158-.005-.183-.07-.093-.242-.237.018-.214.386.017.278.152.368.178.118a.282.282,0,0,1,.164-.249Zm-10.081-.049a.165.165,0,0,0-.129-.061c-.05,0-.074.027-.054.061a.165.165,0,0,0,.129.061c.05,0,.074-.027.054-.061Zm7.445-.2c-.105-.105-.145-.006-.06.149.07.127.081.13.1.029A.218.218,0,0,0,445.106-6.376Zm3.272.2c0-.033-.041-.061-.091-.061s-.091.027-.091.061.041.061.091.061S448.379-6.142,448.379-6.176Zm-4.129-.152c0-.05-.027-.091-.061-.091s-.061.041-.061.091.027.091.061.091S444.249-6.278,444.249-6.328Zm4.433-.244c0-.143-.037-.226-.119-.27s-.122-.14-.137-.473l-.018-.409-.2-.019c-.166-.016-.2,0-.2.108a.212.212,0,0,0,.162.188c.268.1.089.188-.256.122-.28-.053-.312-.046-.472.106a1.456,1.456,0,0,0-.344.6c0,.067.161.007.28-.1.145-.136.266-.112.266.052,0,.075.017.083.07.029s.051-.093-.007-.164-.062-.112,0-.185c.106-.128.283-.113.507.043.243.17.281.225.282.418a.389.389,0,0,0,.04.2c.077.077.143-.03.143-.233Zm-6.315-.12c0-.094-.034-.152-.091-.152-.091,0-.127.187-.051.263S442.367-6.545,442.367-6.692Zm-3.643-.125a.09.09,0,0,0-.091-.087c-.1,0-.106.011-.054.146C438.621-6.647,438.723-6.689,438.723-6.817Zm6.426-.077c.013-.088-.013-.132-.076-.132-.1,0-.129-.094-.038-.15.031-.019.083.011.115.067.05.089.082.093.243.026a1.088,1.088,0,0,1,.92.155c.218.148.366.185.366.091a.248.248,0,0,0-.093-.13c-.083-.069-.081-.089.011-.191.078-.086.086-.131.033-.184s-.1-.044-.188.037-.144.093-.24.041a.811.811,0,0,0-.317-.066.338.338,0,0,1-.358-.381c0-.319-.346-.293-.732.056-.17.154-.241.267-.241.386a.357.357,0,0,1-.091.243.258.258,0,0,0-.091.166c0,.073.053.083.268.05.171-.026.283-.016.309.027.063.1.18.037.2-.111Zm-2.02.045a.107.107,0,0,0-.162-.134.117.117,0,0,0,.068.2A.136.136,0,0,0,443.129-6.849Zm5.8-.611c.057-.106.051-.141-.028-.185a.188.188,0,0,1-.1-.136c0-.045-.07-.127-.156-.183-.122-.08-.175-.087-.243-.03-.133.111-.106.172.126.282s.258.165.151.231a.07.07,0,0,0-.027.095C448.716-7.287,448.858-7.325,448.93-7.46Zm2.746-.233a.791.791,0,0,0,.582-.291c.09-.169-.16-.417-.43-.427-.185-.007-.224.015-.256.142-.021.082-.071.15-.112.15a1.474,1.474,0,0,0-.712.388.286.286,0,0,0,.127.179c.113.079.155.076.38-.026a1.325,1.325,0,0,1,.422-.116Zm1.77.115c.1-.1-.057-.2-.2-.122-.309.165-.341-.018-.064-.368.1-.132.174-.255.154-.274-.07-.07-.21.035-.291.219a.441.441,0,0,1-.189.221c-.108.034-.151.325-.061.415A1.147,1.147,0,0,0,453.446-7.578Zm-3.61.039c0-.015-.027-.044-.061-.064s-.061-.009-.061.027a.063.063,0,0,0,.061.064C449.809-7.512,449.836-7.524,449.836-7.539Zm-2.766-.139A.153.153,0,0,0,447-7.86c-.089-.065-.123-.062-.2.017s-.082.1.024.183c.153.113.194.11.243-.017Zm2.521-.032A.45.45,0,0,0,449.5-7.9a.456.456,0,0,1-.089-.225.405.405,0,0,0-.132-.23l-.132-.123-.167.187c-.182.2-.173.357.019.357.086,0,.111.028.084.1-.059.152.013.207.271.207.152,0,.239-.028.237-.076Zm.777.025c.1-.062.077-.8-.023-.8-.07,0-.17-.424-.15-.638a.753.753,0,0,1,.234-.321c.195-.174.214-.215.149-.318-.1-.161-.093-.282.021-.325.052-.02.079-.011.06.02-.054.087.067.133.238.09s.207-.147.038-.147a.15.15,0,0,1-.139-.069,2.2,2.2,0,0,0-1.244.026c-.263.141-.412.131-.52-.035a1.2,1.2,0,0,0-.376-.285c-.241-.124-.293-.133-.34-.059a.384.384,0,0,0-.056.164c0,.093-.282.1-.338.01-.029-.048-.059-.048-.107,0-.112.112-.3.074-.478-.1-.268-.257-.268-.118,0,.157a.814.814,0,0,0,.369.248c.158,0,.162.1.011.3-.09.117-.132.134-.2.079a1.1,1.1,0,0,0-.593-.021c-.016,0,.032.049.107.1a.893.893,0,0,1,.228.273c.086.167.083.191-.041.359l-.134.181.155.36c.142.329.147.368.058.457s-.087.1.025.1c.176,0,.268-.117.268-.339s.2-.513.295-.42a.51.51,0,0,1,.08.242c.013.119.059.189.132.2.1.018.107-.006.07-.182a.558.558,0,0,0-.127-.27,1.5,1.5,0,0,1,.006-.89.2.2,0,0,0-.024-.188c-.091-.11-.025-.161.208-.161a.4.4,0,0,0,.271-.091.252.252,0,0,1,.434.076c.037.092.095.227.128.3a.359.359,0,0,1,.021.238c-.052.135.075.216.219.139a.155.155,0,0,0,.079-.193c-.038-.16-.007-.206.284-.423.251-.187.449-.223.39-.071-.03.079,0,.089.145.056.213-.047.229.015.061.229a.646.646,0,0,0-.122.206.93.93,0,0,1-.179.253c-.1.111-.164.236-.148.278a1.041,1.041,0,0,1-.035.364c-.052.234-.047.311.028.418a.552.552,0,0,1,.092.265c0,.182.282.274.471.153Zm-.379-.19c-.058-.094.027-.317.11-.289s.092.3,0,.33a.1.1,0,0,1-.11-.041Zm-2.46-.882c-.061-.073-.057-.1.02-.127.119-.046.222.015.222.13s-.147.112-.242,0Zm.1-.73c-.019-.05-.01-.091.02-.091.082,0,.133.108.07.147-.03.019-.071-.007-.09-.057Zm-1.5,1.622a.4.4,0,0,0-.066-.236c-.074-.074.025-.322.129-.322s.065-.227-.04-.268c-.071-.027-.089-.085-.064-.208a.455.455,0,0,0-.077-.339c-.1-.149-.1-.188-.027-.33a.742.742,0,0,0,.084-.237c0-.042.068-.076.15-.076.11,0,.215-.086.395-.324a1.591,1.591,0,0,0,.245-.4c0-.1-.286-.021-.564.163a1.142,1.142,0,0,1-.579.175c-.3.021-.364.006-.472-.116a1.3,1.3,0,0,1-.259-.817.332.332,0,0,0-.109-.3l-.133-.13-.126.134c-.165.176-.159.266.026.35.128.058.152.11.152.334a.92.92,0,0,0,.076.387c.063.1.06.133-.015.18-.134.085-.172.075-.339-.092-.28-.28-.37-.119-.141.252.2.328.5.411.379.108-.032-.083-.018-.1.063-.067a.1.1,0,0,0,.138-.05c.044-.115.143-.114.448.009a.672.672,0,0,1,.335.27,1.164,1.164,0,0,1,.009.856c-.183.185-.312.473-.242.542.1.1.2.012.2-.165,0-.086.026-.135.061-.114a.516.516,0,0,1,0,.489c-.088.054-.015.341.111.437.163.124.258.09.258-.094Zm-2.279-.421c.055-.059.215-.226.355-.37l.255-.262-.134-.109a.375.375,0,0,0-.274-.082c-.124.024-.14,0-.14-.175,0-.151-.022-.195-.09-.174a1.638,1.638,0,0,1-.316.032c-.346.007-.7.411-.474.548a.312.312,0,0,1,.061.216c0,.116.031.179.089.179.134,0,.224-.22.182-.445-.027-.142-.01-.223.055-.278.121-.1.239-.026.2.126a.115.115,0,0,0,.071.154.706.706,0,0,1,.313.333c0,.023-.058.06-.131.083-.164.052-.407.27-.3.27.042,0,.072.061.065.137-.018.227.01.268.063.092a.823.823,0,0,1,.15-.273Zm16.946.25a.317.317,0,0,0,.15-.239c0-.126-.018-.135-.174-.091-.244.07-.493.243-.493.343,0,.117.332.108.518-.014Zm.575.009c0-.049.062-.121.137-.161a2.3,2.3,0,0,0,.277-.181l.141-.109-.232.036a1.623,1.623,0,0,0-.4.12c-.223.112-.226.385-.005.385a.085.085,0,0,0,.081-.089Zm-23.636-.143c.036-.109-.089-.086-.131.024-.023.059-.009.087.035.072A.172.172,0,0,0,437.738-8.168Zm.229-.007a.142.142,0,0,0-.1-.065c-.04,0-.036.035.012.093.083.1.158.078.092-.028Zm2.185.054a.144.144,0,0,1,.155-.026c.188.06.133-.056-.07-.146A.5.5,0,0,1,440-8.512c-.1-.255-.284-.236-.382.04-.026.074.013.119.143.164a.4.4,0,0,1,.215.156C440.017-8.044,440.1-8.03,440.152-8.122Zm25.29-.058c0-.067-.027-.121-.061-.121s-.061.011-.061.025a.621.621,0,0,1-.037.121c-.024.063,0,.1.061.1S465.442-8.109,465.442-8.18Zm-24.531-.275c.042-.051.059-.111.037-.133-.057-.057-.357.059-.387.149-.037.11.257.1.35-.017Zm10.2,0a.321.321,0,0,1,.22-.091c.079,0,.144-.027.144-.061a.061.061,0,0,0-.061-.061.952.952,0,0,1-.28-.242c-.12-.133-.243-.227-.273-.209-.123.076-.016.755.119.755A.243.243,0,0,0,451.111-8.453Zm15.339-.075c-.062-.062-.113.031-.062.113.038.062.053.062.073,0a.124.124,0,0,0-.011-.113Zm-13.386,0c.175-.1.184-.1.271.015l.09.121.091-.121a.525.525,0,0,0-.033-.541.617.617,0,0,0-.358-.046c-.339.023-.393.1-.332.47.039.242.035.24.271.1ZM458.3-8.57a.231.231,0,0,1,.173-.106c.18-.026.183-.2,0-.221-.092-.013-.137.012-.137.076,0,.121-.2.124-.3,0a.246.246,0,0,0-.125-.091c-.089,0-.13.247-.055.337.094.113.4.114.443,0Zm2.078,0c.116-.086.116-.088,0-.18-.175-.134-.213-.119-.213.085S460.2-8.443,460.375-8.571Zm3.332-.033c.172-.066.207-.212.063-.267-.076-.029-.079-.057-.017-.156.087-.139.048-.205-.089-.153-.118.045-.195.23-.108.259.035.012.064.074.064.138,0,.189-.226.143-.335-.068-.1-.184-.212-.195-.212-.019,0,.116.238.32.376.323A.873.873,0,0,0,463.707-8.6Zm4.19-.109c-.023-.719-.012-.682-.209-.682-.163,0-.179.016-.147.145.02.08.007.163-.029.186-.105.065-.076.227.068.381C467.742-8.51,467.9-8.525,467.9-8.712Zm-19.2-.1c-.014-.185-.174-.4-.3-.4-.1,0-.108.1-.017.154a.114.114,0,0,1,.029.134c-.041.107.138.334.236.3.036-.013.06-.1.053-.191Zm10.366-.115a.423.423,0,0,1,.091-.281c.155-.129.1-.182-.182-.182-.306,0-.355.09-.15.275a.32.32,0,0,1,.114.207c-.014.147,0,.186.066.186C459.039-8.726,459.066-8.819,459.066-8.931Zm-16.881-.038a.061.061,0,0,0-.061-.061.061.061,0,0,0-.061.061.061.061,0,0,0,.061.061A.061.061,0,0,0,442.185-8.969ZM462.406-9c-.076-.091-.183-.072-.183.033,0,.031.058.057.129.057C462.46-8.908,462.469-8.924,462.406-9ZM452.3-9.218c.033-.15.006-.208-.167-.369a1.324,1.324,0,0,0-.506-.268c-.278-.071-.309-.068-.436.05-.179.167-.173.277.018.325a.28.28,0,0,0,.277-.072c.087-.079.149-.094.215-.053.14.088.129.177-.024.2a.309.309,0,0,0-.2.143c-.061.114-.053.12.121.082a.356.356,0,0,1,.343.082C452.127-8.947,452.245-8.986,452.3-9.218Zm-9.7.082c.016-.048-.033-.076-.132-.076-.153,0-.2.058-.114.144A.17.17,0,0,0,442.595-9.136Zm3.051-.015c0-.067-.04-.121-.091-.121-.092,0-.125.128-.051.2S445.646-9.03,445.646-9.151Zm14.973.054c.052-.085-.106-.189-.178-.117a.117.117,0,0,0,.082.185.138.138,0,0,0,.1-.068Zm-20.134-.115a.061.061,0,0,0-.061-.061.061.061,0,0,0-.061.061.061.061,0,0,0,.061.061A.061.061,0,0,0,440.484-9.212Zm-.36-.13a.726.726,0,0,0,.114-.543c-.04-.064-.059-.056-.089.037a2.11,2.11,0,0,1-.125.281c-.1.186-.113.355-.028.355C440.029-9.212,440.086-9.271,440.125-9.342ZM458.094-9.4c-.119-.075-.226-.074-.273,0s.226.185.3.112c.039-.037.029-.077-.03-.114Zm-5.4.069c0-.074-.171-.134-.209-.073a.075.075,0,0,0,.008.088c.058.058.2.047.2-.015Zm.7-.067a.474.474,0,0,0,0-.245c-.033-.105-.072-.117-.262-.083a1.228,1.228,0,0,0-.247.061c-.032.028.358.388.421.388.028,0,.068-.055.089-.121Zm13.239-.085a.466.466,0,0,1,.22-.178c.22-.057.055-.162-.255-.162s-.321,0-.262.3c.045.226.166.244.3.044ZM448.6-9.56c-.062-.062-.113.031-.062.113.038.062.053.062.073,0a.125.125,0,0,0-.011-.113ZM438.569-9.8c.086-.033.082-.049-.028-.127s-.113-.106-.055-.176c.04-.048.053-.106.03-.129s-.061-.014-.085.021a.354.354,0,0,1-.148.1c-.214.079-.121.293.147.34a.383.383,0,0,0,.139-.031Zm5.049-.31c-.062-.062-.113.031-.062.113.038.062.053.062.073,0a.125.125,0,0,0-.011-.113Zm-.661-.145a.136.136,0,0,0-.081-.235c-.1,0-.113-.1-.024-.152.114-.07.061-.251-.14-.477-.141-.158-.232-.214-.3-.186a.216.216,0,0,1-.194-.035c-.077-.064-.09-.039-.09.175s.015.25.148.25a.253.253,0,0,0,.188-.064c.07-.112.2.053.165.216s.133.577.219.577A.226.226,0,0,0,442.957-10.252Zm4.86-.9c.026-.276.045-.308.2-.342.2-.043.21-.079.093-.239a.221.221,0,0,0-.257-.078.518.518,0,0,1-.287-.026.223.223,0,0,0-.251.032c-.166.109-.242.4-.118.444a.191.191,0,0,1,.084.172c0,.172.352.491.442.4A.913.913,0,0,0,447.818-11.149Zm-5.77.2c-.058-.058-.174.036-.131.106.026.041.06.04.1,0s.048-.082.028-.1Zm6.148-.24c0-.048-.047-.066-.121-.046-.119.031-.16.141-.081.219C448.047-10.961,448.2-11.089,448.2-11.188Zm-3.135-.726c.111-.084.1-.274-.014-.274-.076,0-.255.281-.208.327S444.933-11.816,445.062-11.913Zm-1.313-.431c-.058-.058-.174.036-.131.106.026.041.06.04.1,0s.048-.082.028-.1Zm-.217-.4c-.044-.044-.072-.047-.072-.009,0,.081.072.153.112.112.017-.017,0-.064-.04-.1Zm-1.3-.052a.1.1,0,0,0-.079-.065.1.1,0,0,0-.079.065c-.012.036.024.065.079.065S442.246-12.764,442.234-12.8ZM476.627-1.261a.19.19,0,0,1,.106-.106c.046-.015.068.008.053.053a.19.19,0,0,1-.106.106C476.634-1.193,476.612-1.216,476.627-1.261Zm.535-.091c0-.052.027-.078.061-.057a.13.13,0,0,1,.061.095.059.059,0,0,1-.061.057C477.189-1.257,477.162-1.3,477.162-1.352Zm-2.432-.067c0-.061,0-.652,0-1.312.006-1.139,0-1.213-.13-1.444a.459.459,0,0,1-.056-.5,5.973,5.973,0,0,0,.036-1.759c-.04-.41-.034-.471.051-.471.108,0,.19.242.144.421a3.729,3.729,0,0,0,.029.682,1.54,1.54,0,0,0,.241.84.627.627,0,0,1,.151.506c-.028.216-.016.239.165.315a.953.953,0,0,0,.438.049c.177-.024.264-.007.322.064s.056.106-.094.166a.885.885,0,0,1-.312.062.183.183,0,0,0-.195.14.624.624,0,0,1-.211.249.314.314,0,0,0-.155.249.9.9,0,0,1-.1.335.324.324,0,0,0-.032.33.369.369,0,0,1,.029.235.2.2,0,0,0,.036.179c.057.068.046.1-.05.151s-.127.14-.141.318c-.018.248-.167.412-.174.192Zm.3-3.1c-.016-.2-.039-.228-.171-.228s-.156.034-.172.176c-.021.184.063.277.251.279C475.024-4.294,475.04-4.335,475.025-4.521Zm.74,3.116a.125.125,0,0,1,.18-.127c.081.05.008.214-.095.214A.086.086,0,0,1,475.765-1.406ZM441.7-1.951c-.083-.22-.059-.369.06-.369s.154.286.068.439C441.775-1.786,441.761-1.793,441.7-1.951Zm34.59,0c-.045-.117.081-.193.145-.089.053.086.022.178-.061.178C476.348-1.865,476.309-1.9,476.291-1.954Zm-3.683-.089a.13.13,0,0,1,.061-.095c.033-.021.061.005.061.057s-.027.095-.061.095A.059.059,0,0,1,472.607-2.043Zm.547-.16c0-.107.131-.089.168.024.013.04-.019.072-.072.072A.1.1,0,0,1,473.154-2.2Zm2.763-.086c-.019-.03.02-.084.085-.119.159-.085.19-.08.151.023s-.191.169-.236.1Zm.793-.521c-.114-.114-.073-.208.091-.208.085,0,.118.042.118.152,0,.174-.071.193-.209.056Zm-3.192-.056c0-.05.027-.091.061-.091s.061.041.061.091-.027.091-.061.091S473.518-2.817,473.518-2.867Zm2.528.048a.075.075,0,0,1,0-.087c.043-.069.207-.067.207,0s-.158.132-.2.085Zm1.242-.225c-.049-.059-.051-.1-.007-.125a.125.125,0,0,1,.185.123c0,.111-.086.112-.178,0Zm-35-.017c-.073-.073-.039-.2.052-.2a.09.09,0,0,1,.091.088C442.428-3.072,442.341-3,442.284-3.061Zm2.066,0c-.063-.063-.048-.263.02-.263.033,0,.061.068.061.152,0,.159-.014.178-.081.111Zm32.643-.213a.1.1,0,0,1-.008-.148.135.135,0,0,1,.237.1c0,.129-.121.152-.229.044Zm-.891-.044c-.049-.079.193-.325.289-.293.04.013.072.09.072.171,0,.114-.036.151-.161.165C476.214-3.263,476.124-3.282,476.1-3.316Zm2.456-.431a.061.061,0,0,1,.061-.061.061.061,0,0,1,.061.061.061.061,0,0,1-.061.061A.061.061,0,0,1,478.558-3.747Zm-1.4-.106c0-.1.112-.21.177-.169s.053.064,0,.129c-.076.092-.178.115-.177.04ZM472.243-4a1.175,1.175,0,0,0-.067-.319c-.093-.257.024-.7.185-.7s.2.139.115.368a.624.624,0,0,0,.005.428c.081.269.051.357-.12.357-.081,0-.118-.042-.118-.132Zm-.5-.058c.087-.087.166-.116.241-.087.1.039.1.051-.04.128C471.7-3.883,471.585-3.906,471.739-4.059Zm4.9.049a.336.336,0,0,0-.175-.161c-.127-.048-.152-.205-.1-.652.012-.109.335-.26.43-.2.06.037.048.06-.049.091a.178.178,0,0,0-.13.184.383.383,0,0,1-.093.236c-.077.077-.08.114-.016.217.121.194.291.16.291-.058,0-.143.027-.182.123-.182a.2.2,0,0,0,.173-.134c.049-.131.05-.131.079.021a.4.4,0,0,1-.217.475.463.463,0,0,0-.21.166c-.059.105-.063.105-.1,0Zm2.251-.284a.13.13,0,0,1,.095-.061.059.059,0,0,1,.057.061c0,.033-.043.061-.095.061S478.872-4.26,478.892-4.294Zm-42.019-.3a.228.228,0,0,0-.173-.064,1.218,1.218,0,0,1-.656-.384,2.346,2.346,0,0,1-.235-.392c-.094-.2-.168-.269-.3-.3-.208-.042-.31-.147-.395-.41a.51.51,0,0,0-.257-.286c-.347-.174-.4-.239-.356-.484.031-.192.014-.238-.115-.323-.251-.164-.348-.358-.275-.55.051-.135.038-.209-.07-.4l-.133-.237.122-.167c.179-.246.208-.362.11-.443a.435.435,0,0,1-.029-.478.557.557,0,0,1,.243-.186c.195-.081.231-.173.113-.291s.034-.357.341-.552c.2-.128.254-.19.2-.24s-.039-.124.047-.283c.12-.223.152-.242.528-.308.18-.032.228-.021.228.051,0,.1-.125.165-.33.165a.32.32,0,0,0-.3.4c.033.163.008.2-.273.379-.2.126-.309.243-.309.317s.027.117.061.117.061.068.061.151a.166.166,0,0,1-.146.187.674.674,0,0,0-.271.169c-.112.12-.116.147-.039.283.047.083.1.186.126.229a.214.214,0,0,1-.067.2c-.136.151-.1.164.607.225.433.037.55.068.565.146s-.053.1-.408.123c-.532.03-.624.1-.441.351.169.228.168.329,0,.446-.136.093-.136.094-.015.186.1.079.11.111.046.217-.194.318-.06.319.425,0,.243-.158.414-.23.488-.207a.533.533,0,0,0,.295-.039c.225-.093.364,0,.233.157a1.317,1.317,0,0,1-.686.332.617.617,0,0,0-.31.129l-.164.129.133.068a.536.536,0,0,1,.2.28c.075.233.264.318.353.159s.188-.116.145.056c-.027.107-.011.164.054.189a.226.226,0,0,1,.093.209.254.254,0,0,0,.121.239c.067.036.121.094.121.129,0,.1.261.292.407.294a.23.23,0,0,1,.182.089.445.445,0,0,0,.291.106c.134.011.243.047.243.08,0,.083-.374.113-.423.034ZM434.352-7.6c0-.05-.027-.091-.061-.091s-.061.041-.061.091.027.091.061.091S434.352-7.553,434.352-7.6ZM393.315-5.275l.017-.617L393.781-6a3.544,3.544,0,0,0,1.951-1.208,7.776,7.776,0,0,0,1.336-1.683.355.355,0,0,1,.085-.134,8.315,8.315,0,0,0,.585-1.037c.263-.5.771-1.666,1.061-2.429.057-.15.142-.346.189-.434a.75.75,0,0,0,.085-.275.494.494,0,0,1,.083-.234,1.068,1.068,0,0,0,.126-.317c.024-.109.068-.2.1-.2s.056-.055.056-.121c0-.121-.041-.121-5.936-.123-4.839,0-5.955-.017-6.042-.083s-.106-.175-.106-.566c0-.616.044-.66.7-.705,1.92-.134,2.693-.574,3.111-1.772.294-.844.29-.638.29-13.936,0-11.753-.006-12.516-.11-13.114a4.1,4.1,0,0,0-.159-.7.81.81,0,0,1-.09-.235,1.906,1.906,0,0,0-1.008-1.1,6.352,6.352,0,0,0-2.177-.492c-.514-.028-.559-.091-.54-.758l.015-.516,9.766-.015c8.608-.014,9.781,0,9.9.076a.783.783,0,0,0,.375.091,2.069,2.069,0,0,1,.518.086c.15.048.478.147.729.222a6.431,6.431,0,0,1,.811.308,2.677,2.677,0,0,0,.406.173,5.439,5.439,0,0,1,1.4,1.087,4.705,4.705,0,0,1,1.145,1.584c.078.184.164.38.193.437a8.654,8.654,0,0,1,.209,3.48c-.054.267-.126.6-.16.729s-.086.358-.117.5a1.678,1.678,0,0,1-.118.364,1.722,1.722,0,0,0-.241,1.2,16,16,0,0,1,.525,1.518.73.73,0,0,0,.082.245,4.779,4.779,0,0,1,.231.607c.432,1.3.744,2.191.8,2.288a1.762,1.762,0,0,1,.114.334,5.209,5.209,0,0,0,.285.837,2.322,2.322,0,0,1,.122.364.907.907,0,0,0,.085.243.905.905,0,0,1,.085.243,2.329,2.329,0,0,0,.122.364,6.16,6.16,0,0,1,.279.789c.045.164.331.99.947,2.733.118.334.237.7.265.806a.953.953,0,0,0,.11.273.712.712,0,0,1,.09.256,3.342,3.342,0,0,0,.166.516c.074.184.171.457.215.607s.139.424.211.607a5.6,5.6,0,0,1,.184.55,2.132,2.132,0,0,0,.146.395.863.863,0,0,1,.1.3.489.489,0,0,0,.091.239.481.481,0,0,1,.09.243.82.82,0,0,0,.091.3.792.792,0,0,1,.091.264.953.953,0,0,0,.088.281,5.531,5.531,0,0,1,.331.95,1.493,1.493,0,0,0,.113.334c.037.067.167.422.289.789s.26.754.307.859a.971.971,0,0,1,.086.286,1.064,1.064,0,0,0,.084.294c.046.11.137.35.2.533l.194.547c.042.117.1.295.127.395a8.418,8.418,0,0,0,.3.85,2.5,2.5,0,0,1,.111.334c.03.117.122.39.2.607.213.56.3.794.356,1,.029.1.165.5.3.88s.273.79.3.9a.758.758,0,0,0,.117.27.261.261,0,0,1,.065.16,1.033,1.033,0,0,0,.121.322,1.166,1.166,0,0,1,.121.287,13.818,13.818,0,0,0,.715,1.579,14.715,14.715,0,0,0,.974,1.731,7.629,7.629,0,0,0,1.2,1.25c.067.032.24.125.385.207a3.444,3.444,0,0,0,1.105.335c.179,0,.24.193.24.755v.52H416.13l.017-.592.017-.592.478-.039c.43-.035.493-.056.62-.213a1.029,1.029,0,0,0,.182-.377,2.04,2.04,0,0,0-.077-.876,14.728,14.728,0,0,1-.512-1.466,1.6,1.6,0,0,0-.1-.3c-.045-.072-.415-1.109-.5-1.4-.029-.1-.207-.619-.395-1.154s-.366-1.054-.4-1.154c-.1-.328-.253-.786-.332-.972a7,7,0,0,1-.275-.789,6.974,6.974,0,0,0-.275-.789,8.539,8.539,0,0,1-.324-.972l-.044-.182-5.783-.015-5.783-.015-.051.137c-.107.286-.2.569-.25.744-.028.1-.135.414-.238.7a3.959,3.959,0,0,0-.187.615.793.793,0,0,1-.091.274.833.833,0,0,0-.091.309,1.1,1.1,0,0,1-.084.334,7.473,7.473,0,0,0-.315,1.141c-.605,2.5-.658,3.925-.178,4.839a2.925,2.925,0,0,0,1.766,1.418,8.822,8.822,0,0,0,1.771.178l.622,0v1.214H393.3Zm6.728-10.434c.024-.05.088-.177.143-.283a.877.877,0,0,0,.1-.307.466.466,0,0,1,.089-.234.464.464,0,0,0,.091-.219.851.851,0,0,1,.088-.273c.086-.173.24-.549.43-1.052.057-.15.138-.355.18-.455s.138-.346.212-.547a5.559,5.559,0,0,1,.221-.526.727.727,0,0,0,.086-.234,1.026,1.026,0,0,1,.083-.264c.046-.105.13-.314.189-.465.234-.6.351-.889.432-1.052a.809.809,0,0,0,.086-.264.721.721,0,0,1,.086-.253,5.541,5.541,0,0,0,.221-.526c.074-.2.156-.419.183-.486.12-.3.631-1.611.825-2.125.05-.134.128-.325.172-.425s.141-.346.215-.547.17-.446.213-.547.118-.291.169-.425c.341-.9.547-1.418.622-1.558a.76.76,0,0,0,.089-.243,1.316,1.316,0,0,1,.119-.325,1.264,1.264,0,0,0,.119-.337.284.284,0,0,1,.051-.152,2.825,2.825,0,0,0,.187-.422c.189-.5.311-.8.445-1.11a.642.642,0,0,0,.079-.315c-.019-.03-.169.035-.335.144a10.1,10.1,0,0,1-.895.486c-.326.158-.67.326-.765.374a.8.8,0,0,1-.256.087,1.049,1.049,0,0,0-.284.087c-.11.048-.391.142-.624.209a6.878,6.878,0,0,1-2.49.312,6.283,6.283,0,0,1-2.307-.275c-.134-.044-.333-.1-.444-.121a1.659,1.659,0,0,1-.364-.126.749.749,0,0,0-.256-.085.474.474,0,0,1-.213-.082,1.045,1.045,0,0,0-.287-.123l-.167-.041v5.97c0,5.609.007,6,.114,6.491a3.536,3.536,0,0,0,1.331,2.137,4,4,0,0,0,1.858.624.207.207,0,0,0,.158-.1Zm13.511-2.611a.144.144,0,0,0-.01-.137c-.046-.075-.584-1.6-.689-1.958-.121-.412-.684-2.008-.727-2.065a.748.748,0,0,1-.079-.243c-.018-.1-.146-.5-.285-.88s-.277-.78-.305-.88c-.065-.227-.228-.689-.3-.85-.03-.067-.124-.34-.209-.607-.177-.557-.322-.979-.4-1.154-.028-.067-.122-.34-.208-.607-.244-.753-.293-.9-.374-1.093-.041-.1-.133-.36-.2-.577-.193-.6-.327-.981-.416-1.193a1.034,1.034,0,0,1-.081-.272,5.389,5.389,0,0,0-.308-.872,2.185,2.185,0,0,1-.088-.319c-.049-.25-.105-.215-.238.15-.106.294-.159.42-.391.945a1.633,1.633,0,0,0-.129.375.8.8,0,0,1-.086.256c-.047.095-.132.295-.189.445-.174.464-.343.873-.431,1.042a.756.756,0,0,0-.084.277.466.466,0,0,1-.089.234.465.465,0,0,0-.091.219.852.852,0,0,1-.088.273c-.086.173-.24.549-.43,1.052-.057.15-.139.355-.183.455s-.141.346-.215.547-.157.419-.185.486c-.082.2-.275.695-.51,1.306-.122.317-.262.649-.309.738a.72.72,0,0,0-.087.253.791.791,0,0,1-.088.264c-.049.095-.187.432-.308.749s-.3.765-.4.995a3.4,3.4,0,0,0-.179.486,1.408,1.408,0,0,1-.119.311,1.344,1.344,0,0,0-.121.334.476.476,0,0,1-.093.209.435.435,0,0,0-.089.2,3.714,3.714,0,0,1-.342.823c-.2.366-.5.346,5.042.346C411.761-18.26,413.529-18.281,413.554-18.321Zm-9.9-13.874a3.984,3.984,0,0,0,1.313-.452c.113-.068.26-.149.327-.179a5.025,5.025,0,0,0,1.454-1.769c.064-.15.166-.388.227-.528a1.342,1.342,0,0,0,.111-.362,1.549,1.549,0,0,1,.084-.352,14.166,14.166,0,0,0,.2-4.769,10.027,10.027,0,0,0-.959-3.1c-.029-.05-.087-.159-.129-.243a6.636,6.636,0,0,0-1.648-1.939,6.25,6.25,0,0,0-5.435-.7,1.443,1.443,0,0,0-.392.152.256.256,0,0,1-.155.062,3.3,3.3,0,0,0-.61.272c-.284.149-.591.3-.683.339s-.167.093-.167.123a.055.055,0,0,1-.055.055,1.263,1.263,0,0,0-.3.163l-.248.163V-34.6l.288.2c.774.53,1.346.9,1.594,1.03a4.073,4.073,0,0,1,.364.211,6.088,6.088,0,0,0,.638.3l.729.307a6.946,6.946,0,0,0,3.461.367ZM472.668-4.841c-.081-.053-.081-.066,0-.119a.7.7,0,0,1,.3-.061c.182,0,.2.011.121.084A.377.377,0,0,1,472.668-4.841ZM475.533-5c.03-.152.171-.173.171-.025,0,.075-.039.127-.1.127A.076.076,0,0,1,475.533-5ZM441.36-5.954c-.049-.128-.008-.36.068-.385a.236.236,0,0,1,.166.056c.087.065.091.1.028.224C441.531-5.88,441.408-5.83,441.36-5.954Zm37.7-.233c.038-.113.168-.131.168-.024a.1.1,0,0,1-.1.1C479.077-6.115,479.045-6.148,479.058-6.187Zm-42.736-.3c-.056-.09.009-.14.125-.095.054.021.081.065.06.1a.1.1,0,0,1-.185,0Zm41.85-.16c-.068-.068-.042-.14.052-.14.05,0,.091.026.091.057,0,.077-.095.131-.143.083Zm-38.052-.1a.494.494,0,0,1,.091-.208.294.294,0,0,0,.052-.233c-.034-.089-.011-.1.167-.06a.735.735,0,0,1,.289.122c.07.066.06.091-.061.155a.757.757,0,0,0-.223.188C440.345-6.646,440.12-6.622,440.12-6.739Zm33.762-.1a.061.061,0,0,1,.061-.061.061.061,0,0,1,.061.061.061.061,0,0,1-.061.061A.061.061,0,0,1,473.883-6.844Zm-33.253-.513c-.053-.139,0-.3.1-.324a.385.385,0,0,1,.24.1c.124.1.133.131.063.215-.1.122-.362.128-.408.011Zm29.185.028c-.071-.045-.075-.072-.016-.131.088-.088.156-.039.127.093-.015.067-.047.078-.111.038Zm.546-.26a.733.733,0,0,1-.223-.164c-.063-.081-.076-.08-.113.014-.066.17-.139.124-.217-.135a.44.44,0,0,0-.185-.277c-.14-.044-.139-.07,0-.366a.719.719,0,0,0,.057-.564c-.05-.276-.043-.342.045-.44.154-.17.258-.141.3.082a2.625,2.625,0,0,1-.058.9c-.028.07.024.149.177.266.17.13.2.184.149.248s-.033.1.094.144c.221.084.308.078.4-.029s.209-.06.138.049a.423.423,0,0,0-.047.193c0,.147-.279.187-.516.074Zm3.279.017c0-.033.041-.061.091-.061s.091.027.091.061-.041.061-.091.061S473.64-7.539,473.64-7.573Zm2.64,0c-.02-.032.02-.058.089-.058.147,0,.161.034.036.082A.107.107,0,0,1,476.28-7.575Zm1.55,0a.061.061,0,0,1,.061-.061.061.061,0,0,1,.061.061.061.061,0,0,1-.061.061A.061.061,0,0,1,477.83-7.573Zm-42.689-.12c0-.033.089-.1.2-.159a1.8,1.8,0,0,0,.3-.19c.113-.1.232-.059.232.078,0,.059-.068.088-.212.088a.3.3,0,0,0-.288.121c-.078.126-.229.167-.229.062Zm33.982-.155C469-7.969,469-8,469.116-8.153c.09-.117.092-.116.185,0,.18.234.023.5-.177.3Zm-.623-.3a4.884,4.884,0,0,1,0-.792c.031-.667.1-.922.235-.84a5.968,5.968,0,0,1-.025,1.649c-.081.1-.163.1-.206-.017Zm-11.972-.2a5.7,5.7,0,0,1,.013-1.457c.06-.06.155.11.156.277a.664.664,0,0,0,.064.259c.09.169.007,1.028-.1,1.028A.184.184,0,0,1,456.528-8.347Zm13.731-.033a.071.071,0,0,1,0-.08c.046-.046.347.044.347.1S470.3-8.31,470.259-8.38Zm-14.7-.058a.4.4,0,0,1-.055-.459.414.414,0,0,0,.055-.241c-.078-.218.487-.378.57-.161.059.155-.077.386-.207.352s-.3.261-.2.364.079.222-.02.222A.208.208,0,0,1,455.561-8.438Zm13.585.015a.061.061,0,0,1,.061-.061.061.061,0,0,1,.061.061.061.061,0,0,1-.061.061A.061.061,0,0,1,469.146-8.423Zm-.022-.38c-.067-.106-.074-.236-.034-.586.059-.519.033-.59-.3-.821l-.243-.169-.245.173c-.135.1-.245.207-.246.249,0,.109-.042.1-.516-.131-.235-.114-.481-.229-.548-.256-.1-.04-.083-.053.1-.07a.883.883,0,0,1,.491.124c.293.156.458.14.6-.059a.7.7,0,0,1,.241-.182.29.29,0,0,1,.334.037,1.255,1.255,0,0,1,.258.208c.114.138.159.13.5-.092a1.11,1.11,0,0,1,.743-.207c.652-.02.69.068.069.16a2,2,0,0,0-.72.209c-.189.129-.19.132-.175.618a1.8,1.8,0,0,1-.077.709.679.679,0,0,1-.121.221c-.015,0-.067-.061-.114-.137Zm-4.279-.065c-.158-.168-.162-.232-.036-.477.1-.2.185-.173.217.071.019.142.04.151.343.138.277-.012.32,0,.3.091-.013.069-.089.111-.226.124a.891.891,0,0,0-.338.106c-.12.078-.145.073-.264-.054ZM435.323-8.9a.164.164,0,0,1,.268-.126c.047.048.033.091-.052.154-.158.117-.216.11-.216-.028Zm1.579-.006a.061.061,0,0,1,.061-.061.061.061,0,0,1,.061.061.061.061,0,0,1-.061.061A.061.061,0,0,1,436.9-8.909Zm-2.369-.245c-.067-.163-.063-.195.038-.271.242-.183.369-.046.25.269-.089.237-.19.237-.288,0Zm3.705,0a.061.061,0,0,1,.061-.061.061.061,0,0,1,.061.061.061.061,0,0,1-.061.061A.061.061,0,0,1,438.238-9.151Zm33.975-.121c-.042-.068.252-.223.311-.165a.145.145,0,0,1,0,.131.2.2,0,0,1-.313.033Zm1.149-.237a.907.907,0,0,1,.051-.346.262.262,0,0,0,.045-.156c0-.151.125-.141.165.013.026.1.073.121.222.106s.195-.049.22-.2c.037-.216.214-.278.272-.1.048.151.142.162.2.023.026-.067-.006-.132-.093-.19-.216-.143-.154-.194.239-.194.356,0,.37.006.335.137a1.124,1.124,0,0,0-.037.213.086.086,0,0,1-.091.076.249.249,0,0,0-.166.121c-.092.147-.155.152-.3.023-.125-.113-.31-.07-.26.06.02.053-.013.1-.086.126a.252.252,0,0,0-.151.157.162.162,0,0,1-.158.119c-.1,0-.127-.038-.127-.182,0-.125-.03-.182-.1-.182s-.092.061-.076.313c.012.188-.007.322-.047.336s-.064-.084-.06-.278Zm-2.7.085c0-.051.054-.091.121-.091s.121.04.121.091-.054.091-.121.091S470.664-9.374,470.664-9.425Zm1.269.018c-.087-.059-.088-.085-.007-.247a.433.433,0,0,1,.2-.211c.076-.02.113-.085.113-.2a.216.216,0,0,1,.1-.206.119.119,0,0,0,.068-.152c-.023-.089.011-.123.151-.151.229-.046.329.012.193.112-.057.042-.085.108-.061.146.06.1.279.088.279-.012a.336.336,0,0,1,.114-.185c.094-.085.2-.1.592-.072l.538.034c.033,0-.053.071-.192.154-.256.153-.409.152-.469-.005s-.246-.088-.573.217a1.932,1.932,0,0,1-.364.3c-.12-.016-.188.02-.219.117a.4.4,0,0,1-.224.18c-.132.05-.179.1-.154.165.041.108.041.108-.088.02Zm2.285.015c-.049-.08.031-.246.119-.246s.237.162.171.2C474.371-9.365,474.247-9.345,474.218-9.391Zm-38.774-.254c-.535-.282-.622-.356-.552-.469.111-.179,1.215.4,1.218.645C436.113-9.344,435.922-9.394,435.444-9.646Zm29.694.066c0-.035-.082-.092-.182-.127-.133-.046-.182-.1-.182-.206,0-.218.106-.237.337-.06s.3.458.119.458c-.05,0-.091-.029-.091-.064Zm7.682-.058c-.021-.033-.009-.061.027-.061a.063.063,0,0,1,.064.061c0,.033-.012.061-.027.061S472.84-9.6,472.82-9.637ZM471.386-9.8a1.182,1.182,0,0,1,0-.176.2.2,0,0,0-.054-.171c-.094-.058-.079-.136.035-.179a.946.946,0,0,1,.655.309c.03.078,0,.09-.14.061a.261.261,0,0,0-.284.083c-.11.122-.2.154-.217.073Zm-8-.146a.189.189,0,0,1,.135-.1c.069-.013.1.008.081.061a.189.189,0,0,1-.135.1C463.4-9.876,463.373-9.9,463.39-9.95Zm6.849.009A.063.063,0,0,1,470.3-10c.035,0,.047.027.027.061s-.05.061-.064.061S470.239-9.907,470.239-9.941Zm.486-.115c0-.067.187-.144.235-.1.019.019-.005.061-.054.092-.114.072-.18.073-.18,0Zm-30.071-.2a1.9,1.9,0,0,1-.35-.463,6.2,6.2,0,0,1-.512-1.688c-.014-.339-.107-.506-.283-.506s-.21-.131-.067-.247a.339.339,0,0,0,.055-.474c-.061-.062-.046-.07.077-.039.141.035.172,0,.383-.415a1.63,1.63,0,0,1,.439-.6c.209-.143.277-.294.131-.294a3.049,3.049,0,0,0-.88.744c-.341.356-.476.42-.538.258a.173.173,0,0,0-.155-.091c-.1,0-.117.035-.1.226s0,.231-.091.248a.116.116,0,0,1-.142-.1.353.353,0,0,0-.338-.192c-.024,0-.028.081-.008.181.026.131.013.183-.047.186s-.02.029.058.061c.19.076.132.212-.084.2-.3-.023-.331-.057-.331-.38,0-.231-.022-.306-.091-.306-.188,0-.124.632.1.959a1.3,1.3,0,0,1,.176.32c0,.114-.621.288-1.136.319a.5.5,0,0,0-.27.087.253.253,0,0,1-.139.075,1.612,1.612,0,0,0-.58.536c0,.043-.027.061-.061.04q-.188-.116.221-.5a1.046,1.046,0,0,1,.391-.262.187.187,0,0,0,.141-.052,1.056,1.056,0,0,1,.4-.09c.33-.035.729-.175.729-.256a1.683,1.683,0,0,0-.114-.257,1.546,1.546,0,0,1,.019-1.078.811.811,0,0,1,1.26-.269c.147.118.274.175.343.153a2.558,2.558,0,0,0,.476-.383c.467-.443.542-.5.649-.5s.464-.307.464-.4c0-.14.314-.325.553-.325a.982.982,0,0,0,.432-.121c.357-.218.433-.145.136.13-.234.216-.292.243-.409.19a.608.608,0,0,0-.618.278.6.6,0,0,1-.148.215.3.3,0,0,0,.061.466c.156.084.143.218-.038.385a.471.471,0,0,0-.154.255,1.753,1.753,0,0,1-.212.479c-.385.666-.411.753-.37,1.193a2.8,2.8,0,0,0,.846,1.715c.312.266.333.3.272.437-.093.2-.286.187-.546-.05Zm-.351-3.614c.151-.342.152-.341-.031-.222a.32.32,0,0,0-.152.194.375.375,0,0,1-.1.2c-.053.059-.078.138-.055.175C440.032-13.421,440.163-13.558,440.3-13.873Zm20.8,3.69a.424.424,0,0,1,.265-.061.684.684,0,0,0,.346-.089.556.556,0,0,1,.281-.091.285.285,0,0,0,.2-.063.444.444,0,0,1,.273-.061.444.444,0,0,1,.273.061c.021.034-.028.061-.114.061-.157,0-.342.14-.342.259,0,.048-.021.047-.073,0-.088-.088-.391-.1-.443-.012a.734.734,0,0,1-.372.061c-.207,0-.32-.023-.3-.061Zm2.976-.182a.951.951,0,0,0-.909-.019c-.232.111-.384.051-.317-.125.028-.074.172-.09.769-.088.632,0,.742.017.79.108a.137.137,0,0,1-.014.175c-.1.1-.194.086-.319-.051ZM436.23-10.43q-.13-.13-.069-.19a.209.209,0,0,1,.316.134C436.477-10.311,436.373-10.287,436.23-10.43Zm34.829-.027-.182-.081.182-.006a1.788,1.788,0,0,0,.3-.036c.116-.029.331.059.271.111A.773.773,0,0,1,471.059-10.457Zm-4.475,0a2.707,2.707,0,0,0-.557-.034c-.335,0-.524-.026-.524-.068a3.441,3.441,0,0,1,1.3.075c.039.039.017.06-.064.06a.3.3,0,0,1-.156-.032Zm-1.9-.089c-.132-.034-.048-.048.3-.053.334,0,.457.012.395.053A1.193,1.193,0,0,1,464.683-10.548Zm7.255,0a.524.524,0,0,1,.3,0c.062.036-.007.053-.211.05-.292,0-.3-.006-.092-.054Zm-35.3-.05c-.045-.073.321-.556.421-.556.148,0,.166.129.031.224a.607.607,0,0,0-.187.238C436.845-10.551,436.7-10.5,436.634-10.6Zm-1.178-.115a.126.126,0,0,1,.11-.106.126.126,0,0,1,.11.106c.014.075-.018.106-.11.106S435.442-10.641,435.456-10.715Zm5.894-.181c-.087-.03-.1-.259-.02-.259.121,0,.248.078.248.152C441.578-10.913,441.46-10.858,441.35-10.9Zm-5.119-.232a.691.691,0,0,1-.083-.341c-.005-.253.026-.293.329-.415a2.558,2.558,0,0,0,.334-.178c.2-.13.334-.155.334-.064,0,.033-.052.061-.116.061s-.138.065-.178.178a.574.574,0,0,1-.249.275c-.174.09-.184.114-.149.338.031.191.02.241-.053.241a.265.265,0,0,1-.17-.094Zm.671-.269c0-.033.111-.13.247-.216.2-.126.265-.142.336-.083.13.108.08.179-.191.273C437.008-11.323,436.9-11.316,436.9-11.4Zm9.5-1.154c-.054-.087.026-.314.1-.271a.231.231,0,0,1,0,.3.07.07,0,0,1-.095-.027Zm-3.289-.944c-.051-.134.009-.17.2-.121.163.041.165.046.052.129-.151.11-.211.109-.256-.008Zm.494-.755a.238.238,0,0,0-.032-.187c-.066-.123-.072-.123-.151-.016-.273.367-.55-.67-.356-1.331a.178.178,0,0,1,.185-.106c.147,0,.152.013.133.317-.017.255,0,.321.078.337.129.026.176-.166.112-.453a.405.405,0,0,1,.01-.3c.071-.085-.019-.3-.144-.341a1.159,1.159,0,0,0-.693.338c-.191.175-.384.2-.432.058-.014-.042.007-.076.047-.076a.911.911,0,0,0,.294-.167c.477-.36.671-.4,1.075-.205a1.308,1.308,0,0,0,.436.117,1.528,1.528,0,0,1,.406.079c.147.053.233.057.289.012a.9.9,0,0,1,.306-.1c.288-.052.5.055.764.384.161.2.183.257.109.285s-.4-.235-.4-.339c0-.023-.071-.074-.157-.114a.763.763,0,0,0-.665.117c-.045.074-.261.016-.4-.107-.084-.073-.142-.076-.347-.014-.243.073-.246.077-.22.323.094.907.091,1-.044,1.282-.073.15-.156.273-.185.273s-.036-.027-.015-.059Zm3.665-.108a2.235,2.235,0,0,0-.511-.858,1.206,1.206,0,0,0-.358-.311.14.14,0,0,1-.114-.091c-.075-.2.29-.053.561.221.3.307.717,1.206.554,1.206-.035,0-.094-.075-.131-.167Zm-4.882-.121c-.021-.125-.093-.415-.159-.645-.09-.313-.1-.434-.051-.486.1-.1.259.134.213.317a.4.4,0,0,0,.048.273c.127.2.182.768.073.768C442.467-14.252,442.418-14.343,442.394-14.48Zm-.822-.055a1.2,1.2,0,0,1-.359-.65c0-.11.093-.134.152-.039s.258.075.291-.015c.059-.16.159.054.176.377.019.343-.021.393-.261.327Zm2.788-.234c-.023-.456-.019-.486.072-.486.111,0,.2.508.106.622-.1.131-.167.083-.178-.137Zm.84.167a1.773,1.773,0,0,1-.073-.36c-.045-.336.049-.489.186-.3.117.159.151.12.151-.173s.026-.313.182-.214c.138.088.108.7-.045.9C445.481-14.585,445.26-14.5,445.2-14.6Zm-3.714-.8a.13.13,0,0,1,.095-.061.059.059,0,0,1,.057.061c0,.033-.043.061-.095.061S441.466-15.373,441.486-15.406Zm3.657-.078a.209.209,0,0,1,.017-.164c.068-.11.257-.025.232.1s-.2.174-.249.059Zm-.793-.023c-.076-.076-.041-.263.051-.263.057,0,.091.057.091.152C444.492-15.471,444.433-15.425,444.351-15.507Zm-17.573-4.681c-.29-.272-.4-.475-.354-.671a1.4,1.4,0,0,1,.61-.652,5.289,5.289,0,0,1,1.3-.574.45.45,0,0,0,.22-.089.565.565,0,0,1,.286-.091c.213,0,.312-.217.22-.479-.068-.194-.193-.249-.571-.25a1.315,1.315,0,0,0-1,.681c-.2.378-.267.434-.447.389-.137-.035-.153-.072-.171-.418-.018-.324,0-.4.111-.514a.716.716,0,0,1,.3-.171,3.034,3.034,0,0,0,.385-.121,7.319,7.319,0,0,1,1.3-.255,1.323,1.323,0,0,1,.978.319c.077.118.1.348.1,1.225A7.319,7.319,0,0,0,430.1-20.7c.066.1.4.05.559-.091.139-.125.235-.061.235.158,0,.157-.045.2-.451.391-.563.271-1.06.3-1.216.082a.563.563,0,0,1-.095-.27c0-.245-.16-.234-.577.041a2.586,2.586,0,0,1-.273.16,1.873,1.873,0,0,1-.912.2c-.365,0-.431-.019-.589-.167Zm1.915-.729a1.193,1.193,0,0,0,.4-.559c.135-.384.084-.476-.208-.374a1.26,1.26,0,0,1-.323.069.754.754,0,0,0-.283.082,1.692,1.692,0,0,1-.305.119c-.193.048-.662.45-.662.566a.528.528,0,0,0,.157.246c.145.145.187.155.55.125A.894.894,0,0,0,428.693-20.917Zm9.059.8a.686.686,0,0,0-.248-.089,1.694,1.694,0,0,1-.467-.338,1.22,1.22,0,0,1-.468-.669.843.843,0,0,1,0-.644,2.274,2.274,0,0,1,1.781-1.471,1.512,1.512,0,0,1,.941,0c.752.18,1.2.571,1.2,1.052a1.1,1.1,0,0,1-.015.251c-.008,0-.685.018-1.5.034s-1.523.041-1.565.055-.064.082-.038.194a1.41,1.41,0,0,0,.6.836,2.07,2.07,0,0,0,2.257-.168c.321-.207.441-.212.441-.019,0,.241-.7.719-1.4.953a2.914,2.914,0,0,1-1.518.024Zm1.7-2.326c0-.27-.462-.559-.888-.556s-1.055.331-1.055.551c0,.107.06.114.972.114S439.452-22.337,439.452-22.438Zm8.817,2.3a1.5,1.5,0,0,1-.827-1.225c-.014-.763.936-1.726,1.908-1.935.15-.032.346-.077.436-.1a1.7,1.7,0,0,1,.569.063c.285.071.426.083.471.038a2.129,2.129,0,0,0,.01-.849,1.5,1.5,0,0,0-.344-.031c-.278-.006-.321-.023-.321-.129s.075-.144.334-.224c1.278-.392,1.493-.428,1.558-.258a.233.233,0,0,1-.094.216c-.128.12-.13.147-.114,2.016l.016,1.894.288,0c.4,0,.493.112.27.305a.612.612,0,0,1-.351.148,1.263,1.263,0,0,0-.4.091.9.9,0,0,1-.738.018.8.8,0,0,1-.073-.395c0-.23-.023-.322-.082-.322a1.955,1.955,0,0,0-.471.292,3.453,3.453,0,0,1-.664.395,2.341,2.341,0,0,1-1.382-.013Zm1.51-.532a2.391,2.391,0,0,0,1.082-1.113.953.953,0,0,0-.035-.853A2.974,2.974,0,0,0,449.671-23a1.429,1.429,0,0,0-1.253,1.055.742.742,0,0,0,0,.607,1.06,1.06,0,0,0,1.358.665Zm4.088.535a1.885,1.885,0,0,1-.334-.166.775.775,0,0,0-.183-.1,1.305,1.305,0,0,1-.317-.3,1.347,1.347,0,0,1,.2-1.93,2.315,2.315,0,0,1,1.356-.7,1.312,1.312,0,0,1,.668-.037,3.97,3.97,0,0,0,.464.1c.216.033.33.107.622.4s.358.393.358.567a.363.363,0,0,1-.073.254c-.078.048-.12.05-1.916.07l-1.169.013v.154a1.284,1.284,0,0,0,.4.758,1.343,1.343,0,0,0,1.114.393,1.792,1.792,0,0,0,1.093-.276c.05-.032.159-.092.243-.133a1.133,1.133,0,0,0,.229-.149.176.176,0,0,1,.167-.04c.18.069.086.265-.26.54a3.117,3.117,0,0,1-1.078.582,2.991,2.991,0,0,1-1.585,0Zm1.769-2.258c.065-.106-.14-.352-.408-.489a1.224,1.224,0,0,0-1.206.1.667.667,0,0,0-.29.316c-.019.134-.016.135.922.135A3.486,3.486,0,0,0,455.637-22.392Zm4.476,2.213c-.45-.355-.483-.794-.083-1.111a6.816,6.816,0,0,1,2.134-.969c.2-.038.214-.058.231-.293.023-.311-.132-.445-.516-.445a1.267,1.267,0,0,0-1.112.775c-.159.309-.2.341-.4.293-.139-.035-.148-.063-.148-.454,0-.468.042-.521.558-.7a10.253,10.253,0,0,1,1.632-.334,1.735,1.735,0,0,1,.831.292,4.007,4.007,0,0,1,.076,1.225,3.974,3.974,0,0,0,.073,1.2c.105.105.292.09.545-.046.187-.1.232-.106.292-.034.21.253-.647.76-1.285.76-.235,0-.306-.028-.41-.16a.6.6,0,0,1-.126-.3c0-.138-.139-.2-.205-.095a4.9,4.9,0,0,1-.91.463,1.98,1.98,0,0,1-.607.094.74.74,0,0,1-.571-.157ZM462.075-21c.312-.325.474-.723.345-.851-.146-.146-1.493.37-1.69.646-.121.17-.107.259.072.437.146.146.186.155.559.125.391-.031.41-.041.714-.357Zm3.3.844c-.333-.288-.355-.38-.373-1.544l-.017-1.082-.273-.03c-.231-.026-.276-.053-.294-.175-.027-.193.077-.248.476-.249a5.258,5.258,0,0,0,.685-.059,1.435,1.435,0,0,1,.44-.024c.116.044.114.289,0,.385-.074.061-.091.254-.091,1.012,0,1.176.071,1.356.532,1.356a2,2,0,0,0,1.267-.913c.235-.514.28-.675.246-.884-.051-.312-.195-.45-.472-.45-.178,0-.238-.028-.269-.124-.072-.227.056-.281.775-.322.376-.022.758-.056.85-.077.148-.033.167-.02.167.114a.333.333,0,0,1-.092.228c-.078.065-.09.255-.076,1.207l.016,1.13h.346c.342,0,.524.083.449.2a1.008,1.008,0,0,1-.554.252,1.593,1.593,0,0,0-.393.091,1.79,1.79,0,0,1-.492.091c-.265,0-.285-.038-.312-.6l-.016-.331-.221.194a1.073,1.073,0,0,1-.268.194.335.335,0,0,0-.144.087,3.183,3.183,0,0,1-.472.273,1.449,1.449,0,0,1-.82.186c-.372,0-.469-.022-.6-.137Zm5.429-.009-.17-.146-.03-1.2-.03-1.2-.194.015c-.247.019-.5-.078-.5-.189s.129-.16.36-.16.359-.167.406-.57c.041-.348.045-.354.317-.471a2.547,2.547,0,0,1,.543-.155c.366-.05.428.06.186.335-.127.145-.172.248-.148.337a1.068,1.068,0,0,1,.035.193.476.476,0,0,0,.125.2c.1.11.191.133.509.133.432,0,.6.1.434.261-.069.069-.179.084-.442.061a1.5,1.5,0,0,0-.519.035l-.168.066.017.988.017.988.224.019a.886.886,0,0,0,.407-.076c.22-.114.432-.123.43-.019,0,.12-.193.31-.424.422-.706.342-1.1.384-1.378.145Zm3.21.029a1.7,1.7,0,0,1-1.164-1.349c0-.852.852-1.609,2.067-1.836a2.065,2.065,0,0,1,1.031,0,1.961,1.961,0,0,1,1.264.6.928.928,0,0,1,.286.549c.149.994-.391,1.666-1.654,2.058a4.154,4.154,0,0,1-1.831-.019Zm2.029-.453a1.13,1.13,0,0,0,.635-.65,1.139,1.139,0,0,0-.194-.937,2.024,2.024,0,0,0-1.476-.758,1.81,1.81,0,0,0-.965.3,1.212,1.212,0,0,0-.34.746,1.7,1.7,0,0,0,1.156,1.322,1.451,1.451,0,0,0,1.185-.022Zm-53.651.361c-.108-.13-.026-.216.208-.216a.371.371,0,0,0,.33-.16c.12-.153.126-.232.126-1.852V-24.15h-.288a2.085,2.085,0,0,0-1.087.333.746.746,0,0,0-.168.349c-.031.174-.076.236-.191.265-.277.07-.331-.05-.331-.744s.052-.792.365-.607c.149.088.426.1,2.259.1a8.024,8.024,0,0,0,2.207-.089c.164-.124.315-.114.389.024a2.4,2.4,0,0,1-.033,1.244c-.187.187-.4.072-.508-.279a.661.661,0,0,0-.2-.309,2.17,2.17,0,0,0-1.046-.276l-.283.019.008,1.7c.009,1.913,0,1.893.469,1.968.179.029.232.066.232.158,0,.115-.049.121-1.191.137-.99.014-1.2,0-1.265-.073Zm8.764,0c-.053-.138.029-.215.226-.215a.494.494,0,0,0,.33-.149l.149-.149V-22.41c0-1.833,0-1.85-.358-1.773-.215.047-.441-.055-.393-.178a.319.319,0,0,1,.21-.125.427.427,0,0,0,.211-.095.287.287,0,0,1,.2-.057,2.7,2.7,0,0,0,.548-.121c.649-.2.837-.141.65.217a6.406,6.406,0,0,0-.093,1.879c0,2.082.027,2.213.467,2.215.215,0,.281.062.225.208-.032.084-.192.1-1.186.1-.949,0-1.155-.015-1.183-.088Zm2.733,0c-.054-.14.029-.215.239-.216.243,0,.3-.042.428-.284a5.177,5.177,0,0,0,.1-1.741c0-1.347-.013-1.56-.1-1.646a.269.269,0,0,0-.272-.061c-.231.051-.419-.015-.419-.147,0-.078.1-.136.349-.213l.631-.192a4.29,4.29,0,0,1,.562-.125c.265-.036.279-.031.277.107a.522.522,0,0,1-.091.263,5.92,5.92,0,0,0-.089,1.843c0,1.529.012,1.747.106,1.916.137.247.187.281.422.282s.3.089.2.216a7.048,7.048,0,0,1-2.343,0Zm7.119-.007c-.059-.153.012-.208.263-.208.365,0,.4-.078.42-1.1.029-1.193.029-1.194-.371-1.218-.246-.014-.322-.042-.338-.125a.108.108,0,0,1,.06-.128c.271-.072.851-.24,1.1-.318.431-.135.532-.059.532.4,0,.388.039.432.213.24a2.086,2.086,0,0,1,1.611-.644l.21.068v1.093H444.5c-.183,0-.215-.024-.258-.19-.141-.544-.783-.453-1.26.178a1.4,1.4,0,0,0-.313.753c-.124.749-.013.933.588.985.366.031.419.051.419.157s-.046.122-1.314.138c-1.161.014-1.318,0-1.351-.081Zm36.907.008c-.051-.133.025-.217.2-.217a.418.418,0,0,0,.441-.311,8.427,8.427,0,0,0,.019-1.916.641.641,0,0,0-.348-.091c-.249-.016-.3-.039-.3-.134,0-.121.209-.208.88-.366a4,4,0,0,0,.432-.121c.182-.079.306.129.289.488a1.12,1.12,0,0,0,.018.358c.018.018.167-.087.33-.234a2,2,0,0,1,.892-.526.544.544,0,0,0,.215-.056.572.572,0,0,1,.36.013l.256.068v1.129h-.214c-.188,0-.218-.021-.25-.179-.108-.538-.762-.5-1.206.067a2.409,2.409,0,0,0-.456,1.211.587.587,0,0,0,.146.4c.124.144.205.175.531.2s.385.047.385.152-.046.122-1.292.138c-1.092.014-1.3,0-1.326-.073Zm-57.165-7.655a.723.723,0,0,0-.285-.089.231.231,0,0,1-.171-.064.688.688,0,0,0-.237-.145,4.875,4.875,0,0,1-1.345-1.41,5.857,5.857,0,0,1-.882-2.734,6.812,6.812,0,0,1,.347-2.916,1,1,0,0,0,.083-.28,10.156,10.156,0,0,1,.979-1.836,8.839,8.839,0,0,1,3-2.782,3.953,3.953,0,0,1,2.186-.5,4.109,4.109,0,0,1,2.289.538,2.255,2.255,0,0,0,.411.16,37.633,37.633,0,0,0-.039-4.5,1,1,0,0,0-.234-.38c-.143-.132-.224-.155-.539-.154a1.608,1.608,0,0,0-.634.121c-.36.163-.5.09-.5-.267s.142-.468.972-.716a1.44,1.44,0,0,0,.273-.105,4.066,4.066,0,0,1,.425-.182c.2-.077.45-.178.556-.225a.987.987,0,0,1,.277-.085.436.436,0,0,0,.2-.089.476.476,0,0,1,.209-.093,1.344,1.344,0,0,0,.334-.121,1.263,1.263,0,0,1,.338-.119.46.46,0,0,0,.213-.091.472.472,0,0,1,.226-.091.61.61,0,0,0,.255-.1.493.493,0,0,1,.286-.076c.123.017.142.059.158.335s0,.326-.164.45c-.391.289-.371-.178-.367,8.33,0,7.137.011,7.747.107,8,.141.371.393.5.894.467a1.812,1.812,0,0,0,.565-.128c.31-.16.434-.084.434.263,0,.287-.121.491-.292.491a4.741,4.741,0,0,0-.822.34.818.818,0,0,1-.253.085.812.812,0,0,0-.253.086c-.095.047-.322.146-.506.221-.612.248-.7.284-.914.387a1.374,1.374,0,0,1-.668.084l-.453-.018-.03-1.962-.03-1.962-.189.2c-.1.11-.3.351-.446.535a23.42,23.42,0,0,1-2.106,2.213,5.6,5.6,0,0,1-1.587.908,5.572,5.572,0,0,1-2.079.006Zm3.127-1.974a.311.311,0,0,0,.213-.091.249.249,0,0,1,.155-.091.283.283,0,0,0,.16-.076,3.94,3.94,0,0,1,.338-.251,6.141,6.141,0,0,0,1.589-2.193c.178-.367.347-.714.375-.771.063-.125.322-.95.417-1.324a8.652,8.652,0,0,0,.028-3.2,6.2,6.2,0,0,0-1.844-1.11.272.272,0,0,1-.168-.067,4.1,4.1,0,0,0-1.318-.279,2.94,2.94,0,0,0-1.433.3,5.577,5.577,0,0,0-1.275,1.194,1.307,1.307,0,0,1-.17.321,4.6,4.6,0,0,0-.311.6c-.078.184-.179.407-.225.5a.813.813,0,0,0-.084.311,1.161,1.161,0,0,1-.084.355A9.907,9.907,0,0,0,420-33.9a6.221,6.221,0,0,0,.453,2.193,1.791,1.791,0,0,1,.114.29,5.47,5.47,0,0,0,.843,1.117,1.492,1.492,0,0,1,.19.136,2.628,2.628,0,0,0,.607.328,3.344,3.344,0,0,0,1.328.053,1.211,1.211,0,0,1,.342-.078Zm21.587,1.974a1.374,1.374,0,0,0-.351-.086,6.031,6.031,0,0,1-1.529-.54,10.025,10.025,0,0,1-.974-.552,3.415,3.415,0,0,0-.3-.218,11.89,11.89,0,0,1-1.919-1.973,8.981,8.981,0,0,1-.567-1c-.142-.3-.279-.588-.306-.64a1.62,1.62,0,0,1-.094-.3,1.53,1.53,0,0,0-.1-.3,5.464,5.464,0,0,1-.174-.687,12.839,12.839,0,0,1-.037-3.375c.171-.79.21-.954.3-1.254a8.658,8.658,0,0,1,.92-2.037.356.356,0,0,0,.089-.139,7.48,7.48,0,0,1,.758-1.072,11.392,11.392,0,0,1,3.205-2.695,1.9,1.9,0,0,0,.383-.228.181.181,0,0,1,.138-.053.282.282,0,0,0,.174-.068,7.7,7.7,0,0,1,1.565-.537c.167-.029.413-.082.547-.117a13.091,13.091,0,0,1,1.6-.065,6.405,6.405,0,0,1,2.447.276,2.287,2.287,0,0,0,.364.089,1.308,1.308,0,0,1,.326.119,1.25,1.25,0,0,0,.342.119.274.274,0,0,1,.174.093.254.254,0,0,0,.161.091c.091,0,.174.048.822.469a9.571,9.571,0,0,1,2.577,2.719,8.233,8.233,0,0,1,.686,1.476c.03.123.083.307.117.407a7.825,7.825,0,0,1,.253,2.39,7.852,7.852,0,0,1-.365,2.745,2.232,2.232,0,0,1-.149.395.842.842,0,0,0-.093.249.821.821,0,0,1-.087.243c-.048.095-.19.383-.317.641a7.025,7.025,0,0,1-.457.789c-.125.176-.353.5-.507.725a15.088,15.088,0,0,1-2.064,2.121,10.147,10.147,0,0,1-4.038,1.781,16.244,16.244,0,0,1-3.522,0Zm4.888-1.356a5.822,5.822,0,0,0,3.342-2.439,6.761,6.761,0,0,0,.818-2,6.343,6.343,0,0,0,.13-1.731,12.434,12.434,0,0,0-.062-1.427c-.032-.15-.1-.465-.148-.7a10.288,10.288,0,0,0-.526-1.761c-.031-.067-.117-.272-.193-.455a11.876,11.876,0,0,0-.928-1.634,10.353,10.353,0,0,0-1.831-1.782,13.5,13.5,0,0,0-2.073-1.024,5,5,0,0,0-1.869-.261,4.755,4.755,0,0,0-3.351,1.1,5.626,5.626,0,0,0-1.965,3.023c-.03.134-.086.339-.125.455a22.292,22.292,0,0,0-.058,3.218,8.539,8.539,0,0,0,2.685,5.43,9.582,9.582,0,0,0,1.993,1.417,4.23,4.23,0,0,0,.931.379.793.793,0,0,1,.261.091,1.078,1.078,0,0,0,.386.1,2.123,2.123,0,0,1,.395.057,11.655,11.655,0,0,0,2.186-.053Zm-17.539-8.977a1.343,1.343,0,0,1-.041-.422c0-.34.017-.394.155-.491a13.559,13.559,0,0,0,1.459-1.18,4.632,4.632,0,0,0,1.434-3.117c0-.526-.146-1.11-.3-1.169-.042-.016-.157.039-.256.123a1.64,1.64,0,0,1-1.825.131,1.447,1.447,0,0,1-.478-1.792.774.774,0,0,1,.178-.3c.027,0,.067-.056.088-.124a1.82,1.82,0,0,1,.758-.557,2.367,2.367,0,0,1,1-.107c.749,0,.8.006,1.155.178,1.144.557,1.608,1.816,1.246,3.382a6.3,6.3,0,0,1-.178.658,2.257,2.257,0,0,0-.1.273,9.013,9.013,0,0,1-2.043,2.979,10.443,10.443,0,0,1-1.788,1.39.447.447,0,0,0-.171.121.242.242,0,0,1-.3.024Z" transform="translate(-379.85 55.69)" fill="#353e5a"/>
  </g>
</svg>
